<?xml version="1.0" encoding="utf-8" standalone="no"?>
<!DOCTYPE svg PUBLIC "-//W3C//DTD SVG 1.1//EN"
  "http://www.w3.org/Graphics/SVG/1.1/DTD/svg11.dtd">
<svg height="288pt" version="1.1" viewBox="0 0 432 288" width="432pt" xmlns="http://www.w3.org/2000/svg" xmlns:xlink="http://www.w3.org/1999/xlink">
 <metadata>
  <rdf:RDF xmlns:cc="http://creativecommons.org/ns#" xmlns:dc="http://purl.org/dc/elements/1.1/" xmlns:rdf="http://www.w3.org/1999/02/22-rdf-syntax-ns#">
   <cc:Work>
    <dc:type rdf:resource="http://purl.org/dc/dcmitype/StillImage"/>
    <dc:date>2023-11-24T16:52:15.229545</dc:date>
    <dc:format>image/svg+xml</dc:format>
    <dc:creator>
     <cc:Agent>
      <dc:title>Matplotlib v3.4.3, https://matplotlib.org/</dc:title>
     </cc:Agent>
    </dc:creator>
   </cc:Work>
  </rdf:RDF>
 </metadata>
 <defs>
  <style type="text/css">*{stroke-linecap:butt;stroke-linejoin:round;}</style>
 </defs>
 <g id="figure_1">
  <g id="patch_1">
   <path d="M 0 288 
L 432 288 
L 432 0 
L 0 0 
z
" style="fill:none;"/>
  </g>
  <g id="axes_1">
   <g id="patch_2">
    <path d="M 50.925 246.2 
L 421.2 246.2 
L 421.2 26.8 
L 50.925 26.8 
z
" style="fill:#ffffff;"/>
   </g>
   <g id="matplotlib.axis_1">
    <g id="xtick_1">
     <g id="line2d_1">
      <path clip-path="url(#p54b5d27139)" d="M 67.746764 246.2 
L 67.746764 26.8 
" style="fill:none;stroke:#b0b0b0;stroke-linecap:square;stroke-width:0.8;"/>
     </g>
     <g id="line2d_2">
      <defs>
       <path d="M 0 0 
L 0 3.5 
" id="mbb47ece318" style="stroke:#000000;stroke-width:0.8;"/>
      </defs>
      <g>
       <use style="stroke:#000000;stroke-width:0.8;" x="67.746764" xlink:href="#mbb47ece318" y="246.2"/>
      </g>
     </g>
     <g id="text_1">
      <!-- 00:00 -->
      <g transform="translate(53.337389 260.798437)scale(0.1 -0.1)">
       <defs>
        <path d="M 2034 4250 
Q 1547 4250 1301 3770 
Q 1056 3291 1056 2328 
Q 1056 1369 1301 889 
Q 1547 409 2034 409 
Q 2525 409 2770 889 
Q 3016 1369 3016 2328 
Q 3016 3291 2770 3770 
Q 2525 4250 2034 4250 
z
M 2034 4750 
Q 2819 4750 3233 4129 
Q 3647 3509 3647 2328 
Q 3647 1150 3233 529 
Q 2819 -91 2034 -91 
Q 1250 -91 836 529 
Q 422 1150 422 2328 
Q 422 3509 836 4129 
Q 1250 4750 2034 4750 
z
" id="DejaVuSans-30" transform="scale(0.015625)"/>
        <path d="M 750 794 
L 1409 794 
L 1409 0 
L 750 0 
L 750 794 
z
M 750 3309 
L 1409 3309 
L 1409 2516 
L 750 2516 
L 750 3309 
z
" id="DejaVuSans-3a" transform="scale(0.015625)"/>
       </defs>
       <use xlink:href="#DejaVuSans-30"/>
       <use x="63.623047" xlink:href="#DejaVuSans-30"/>
       <use x="127.246094" xlink:href="#DejaVuSans-3a"/>
       <use x="160.9375" xlink:href="#DejaVuSans-30"/>
       <use x="224.560547" xlink:href="#DejaVuSans-30"/>
      </g>
     </g>
    </g>
    <g id="xtick_2">
     <g id="line2d_3">
      <path clip-path="url(#p54b5d27139)" d="M 131.957075 246.2 
L 131.957075 26.8 
" style="fill:none;stroke:#b0b0b0;stroke-linecap:square;stroke-width:0.8;"/>
     </g>
     <g id="line2d_4">
      <g>
       <use style="stroke:#000000;stroke-width:0.8;" x="131.957075" xlink:href="#mbb47ece318" y="246.2"/>
      </g>
     </g>
     <g id="text_2">
      <!-- 02:00 -->
      <g transform="translate(117.5477 260.798437)scale(0.1 -0.1)">
       <defs>
        <path d="M 1228 531 
L 3431 531 
L 3431 0 
L 469 0 
L 469 531 
Q 828 903 1448 1529 
Q 2069 2156 2228 2338 
Q 2531 2678 2651 2914 
Q 2772 3150 2772 3378 
Q 2772 3750 2511 3984 
Q 2250 4219 1831 4219 
Q 1534 4219 1204 4116 
Q 875 4013 500 3803 
L 500 4441 
Q 881 4594 1212 4672 
Q 1544 4750 1819 4750 
Q 2544 4750 2975 4387 
Q 3406 4025 3406 3419 
Q 3406 3131 3298 2873 
Q 3191 2616 2906 2266 
Q 2828 2175 2409 1742 
Q 1991 1309 1228 531 
z
" id="DejaVuSans-32" transform="scale(0.015625)"/>
       </defs>
       <use xlink:href="#DejaVuSans-30"/>
       <use x="63.623047" xlink:href="#DejaVuSans-32"/>
       <use x="127.246094" xlink:href="#DejaVuSans-3a"/>
       <use x="160.9375" xlink:href="#DejaVuSans-30"/>
       <use x="224.560547" xlink:href="#DejaVuSans-30"/>
      </g>
     </g>
    </g>
    <g id="xtick_3">
     <g id="line2d_5">
      <path clip-path="url(#p54b5d27139)" d="M 196.167385 246.2 
L 196.167385 26.8 
" style="fill:none;stroke:#b0b0b0;stroke-linecap:square;stroke-width:0.8;"/>
     </g>
     <g id="line2d_6">
      <g>
       <use style="stroke:#000000;stroke-width:0.8;" x="196.167385" xlink:href="#mbb47ece318" y="246.2"/>
      </g>
     </g>
     <g id="text_3">
      <!-- 04:00 -->
      <g transform="translate(181.75801 260.798437)scale(0.1 -0.1)">
       <defs>
        <path d="M 2419 4116 
L 825 1625 
L 2419 1625 
L 2419 4116 
z
M 2253 4666 
L 3047 4666 
L 3047 1625 
L 3713 1625 
L 3713 1100 
L 3047 1100 
L 3047 0 
L 2419 0 
L 2419 1100 
L 313 1100 
L 313 1709 
L 2253 4666 
z
" id="DejaVuSans-34" transform="scale(0.015625)"/>
       </defs>
       <use xlink:href="#DejaVuSans-30"/>
       <use x="63.623047" xlink:href="#DejaVuSans-34"/>
       <use x="127.246094" xlink:href="#DejaVuSans-3a"/>
       <use x="160.9375" xlink:href="#DejaVuSans-30"/>
       <use x="224.560547" xlink:href="#DejaVuSans-30"/>
      </g>
     </g>
    </g>
    <g id="xtick_4">
     <g id="line2d_7">
      <path clip-path="url(#p54b5d27139)" d="M 260.377696 246.2 
L 260.377696 26.8 
" style="fill:none;stroke:#b0b0b0;stroke-linecap:square;stroke-width:0.8;"/>
     </g>
     <g id="line2d_8">
      <g>
       <use style="stroke:#000000;stroke-width:0.8;" x="260.377696" xlink:href="#mbb47ece318" y="246.2"/>
      </g>
     </g>
     <g id="text_4">
      <!-- 06:00 -->
      <g transform="translate(245.968321 260.798437)scale(0.1 -0.1)">
       <defs>
        <path d="M 2113 2584 
Q 1688 2584 1439 2293 
Q 1191 2003 1191 1497 
Q 1191 994 1439 701 
Q 1688 409 2113 409 
Q 2538 409 2786 701 
Q 3034 994 3034 1497 
Q 3034 2003 2786 2293 
Q 2538 2584 2113 2584 
z
M 3366 4563 
L 3366 3988 
Q 3128 4100 2886 4159 
Q 2644 4219 2406 4219 
Q 1781 4219 1451 3797 
Q 1122 3375 1075 2522 
Q 1259 2794 1537 2939 
Q 1816 3084 2150 3084 
Q 2853 3084 3261 2657 
Q 3669 2231 3669 1497 
Q 3669 778 3244 343 
Q 2819 -91 2113 -91 
Q 1303 -91 875 529 
Q 447 1150 447 2328 
Q 447 3434 972 4092 
Q 1497 4750 2381 4750 
Q 2619 4750 2861 4703 
Q 3103 4656 3366 4563 
z
" id="DejaVuSans-36" transform="scale(0.015625)"/>
       </defs>
       <use xlink:href="#DejaVuSans-30"/>
       <use x="63.623047" xlink:href="#DejaVuSans-36"/>
       <use x="127.246094" xlink:href="#DejaVuSans-3a"/>
       <use x="160.9375" xlink:href="#DejaVuSans-30"/>
       <use x="224.560547" xlink:href="#DejaVuSans-30"/>
      </g>
     </g>
    </g>
    <g id="xtick_5">
     <g id="line2d_9">
      <path clip-path="url(#p54b5d27139)" d="M 324.588007 246.2 
L 324.588007 26.8 
" style="fill:none;stroke:#b0b0b0;stroke-linecap:square;stroke-width:0.8;"/>
     </g>
     <g id="line2d_10">
      <g>
       <use style="stroke:#000000;stroke-width:0.8;" x="324.588007" xlink:href="#mbb47ece318" y="246.2"/>
      </g>
     </g>
     <g id="text_5">
      <!-- 08:00 -->
      <g transform="translate(310.178632 260.798437)scale(0.1 -0.1)">
       <defs>
        <path d="M 2034 2216 
Q 1584 2216 1326 1975 
Q 1069 1734 1069 1313 
Q 1069 891 1326 650 
Q 1584 409 2034 409 
Q 2484 409 2743 651 
Q 3003 894 3003 1313 
Q 3003 1734 2745 1975 
Q 2488 2216 2034 2216 
z
M 1403 2484 
Q 997 2584 770 2862 
Q 544 3141 544 3541 
Q 544 4100 942 4425 
Q 1341 4750 2034 4750 
Q 2731 4750 3128 4425 
Q 3525 4100 3525 3541 
Q 3525 3141 3298 2862 
Q 3072 2584 2669 2484 
Q 3125 2378 3379 2068 
Q 3634 1759 3634 1313 
Q 3634 634 3220 271 
Q 2806 -91 2034 -91 
Q 1263 -91 848 271 
Q 434 634 434 1313 
Q 434 1759 690 2068 
Q 947 2378 1403 2484 
z
M 1172 3481 
Q 1172 3119 1398 2916 
Q 1625 2713 2034 2713 
Q 2441 2713 2670 2916 
Q 2900 3119 2900 3481 
Q 2900 3844 2670 4047 
Q 2441 4250 2034 4250 
Q 1625 4250 1398 4047 
Q 1172 3844 1172 3481 
z
" id="DejaVuSans-38" transform="scale(0.015625)"/>
       </defs>
       <use xlink:href="#DejaVuSans-30"/>
       <use x="63.623047" xlink:href="#DejaVuSans-38"/>
       <use x="127.246094" xlink:href="#DejaVuSans-3a"/>
       <use x="160.9375" xlink:href="#DejaVuSans-30"/>
       <use x="224.560547" xlink:href="#DejaVuSans-30"/>
      </g>
     </g>
    </g>
    <g id="xtick_6">
     <g id="line2d_11">
      <path clip-path="url(#p54b5d27139)" d="M 388.798318 246.2 
L 388.798318 26.8 
" style="fill:none;stroke:#b0b0b0;stroke-linecap:square;stroke-width:0.8;"/>
     </g>
     <g id="line2d_12">
      <g>
       <use style="stroke:#000000;stroke-width:0.8;" x="388.798318" xlink:href="#mbb47ece318" y="246.2"/>
      </g>
     </g>
     <g id="text_6">
      <!-- 10:00 -->
      <g transform="translate(374.388943 260.798437)scale(0.1 -0.1)">
       <defs>
        <path d="M 794 531 
L 1825 531 
L 1825 4091 
L 703 3866 
L 703 4441 
L 1819 4666 
L 2450 4666 
L 2450 531 
L 3481 531 
L 3481 0 
L 794 0 
L 794 531 
z
" id="DejaVuSans-31" transform="scale(0.015625)"/>
       </defs>
       <use xlink:href="#DejaVuSans-31"/>
       <use x="63.623047" xlink:href="#DejaVuSans-30"/>
       <use x="127.246094" xlink:href="#DejaVuSans-3a"/>
       <use x="160.9375" xlink:href="#DejaVuSans-30"/>
       <use x="224.560547" xlink:href="#DejaVuSans-30"/>
      </g>
     </g>
    </g>
    <g id="xtick_7">
     <g id="line2d_13">
      <defs>
       <path d="M 0 0 
L 0 2 
" id="m3949dc73b1" style="stroke:#000000;stroke-width:0.6;"/>
      </defs>
      <g>
       <use style="stroke:#000000;stroke-width:0.6;" x="57.045045" xlink:href="#m3949dc73b1" y="246.2"/>
      </g>
     </g>
    </g>
    <g id="xtick_8">
     <g id="line2d_14">
      <g>
       <use style="stroke:#000000;stroke-width:0.6;" x="78.448482" xlink:href="#m3949dc73b1" y="246.2"/>
      </g>
     </g>
    </g>
    <g id="xtick_9">
     <g id="line2d_15">
      <g>
       <use style="stroke:#000000;stroke-width:0.6;" x="89.150201" xlink:href="#m3949dc73b1" y="246.2"/>
      </g>
     </g>
    </g>
    <g id="xtick_10">
     <g id="line2d_16">
      <g>
       <use style="stroke:#000000;stroke-width:0.6;" x="99.851919" xlink:href="#m3949dc73b1" y="246.2"/>
      </g>
     </g>
    </g>
    <g id="xtick_11">
     <g id="line2d_17">
      <g>
       <use style="stroke:#000000;stroke-width:0.6;" x="110.553638" xlink:href="#m3949dc73b1" y="246.2"/>
      </g>
     </g>
    </g>
    <g id="xtick_12">
     <g id="line2d_18">
      <g>
       <use style="stroke:#000000;stroke-width:0.6;" x="121.255356" xlink:href="#m3949dc73b1" y="246.2"/>
      </g>
     </g>
    </g>
    <g id="xtick_13">
     <g id="line2d_19">
      <g>
       <use style="stroke:#000000;stroke-width:0.6;" x="142.658793" xlink:href="#m3949dc73b1" y="246.2"/>
      </g>
     </g>
    </g>
    <g id="xtick_14">
     <g id="line2d_20">
      <g>
       <use style="stroke:#000000;stroke-width:0.6;" x="153.360511" xlink:href="#m3949dc73b1" y="246.2"/>
      </g>
     </g>
    </g>
    <g id="xtick_15">
     <g id="line2d_21">
      <g>
       <use style="stroke:#000000;stroke-width:0.6;" x="164.06223" xlink:href="#m3949dc73b1" y="246.2"/>
      </g>
     </g>
    </g>
    <g id="xtick_16">
     <g id="line2d_22">
      <g>
       <use style="stroke:#000000;stroke-width:0.6;" x="174.763948" xlink:href="#m3949dc73b1" y="246.2"/>
      </g>
     </g>
    </g>
    <g id="xtick_17">
     <g id="line2d_23">
      <g>
       <use style="stroke:#000000;stroke-width:0.6;" x="185.465667" xlink:href="#m3949dc73b1" y="246.2"/>
      </g>
     </g>
    </g>
    <g id="xtick_18">
     <g id="line2d_24">
      <g>
       <use style="stroke:#000000;stroke-width:0.6;" x="206.869104" xlink:href="#m3949dc73b1" y="246.2"/>
      </g>
     </g>
    </g>
    <g id="xtick_19">
     <g id="line2d_25">
      <g>
       <use style="stroke:#000000;stroke-width:0.6;" x="217.570822" xlink:href="#m3949dc73b1" y="246.2"/>
      </g>
     </g>
    </g>
    <g id="xtick_20">
     <g id="line2d_26">
      <g>
       <use style="stroke:#000000;stroke-width:0.6;" x="228.272541" xlink:href="#m3949dc73b1" y="246.2"/>
      </g>
     </g>
    </g>
    <g id="xtick_21">
     <g id="line2d_27">
      <g>
       <use style="stroke:#000000;stroke-width:0.6;" x="238.974259" xlink:href="#m3949dc73b1" y="246.2"/>
      </g>
     </g>
    </g>
    <g id="xtick_22">
     <g id="line2d_28">
      <g>
       <use style="stroke:#000000;stroke-width:0.6;" x="249.675978" xlink:href="#m3949dc73b1" y="246.2"/>
      </g>
     </g>
    </g>
    <g id="xtick_23">
     <g id="line2d_29">
      <g>
       <use style="stroke:#000000;stroke-width:0.6;" x="271.079415" xlink:href="#m3949dc73b1" y="246.2"/>
      </g>
     </g>
    </g>
    <g id="xtick_24">
     <g id="line2d_30">
      <g>
       <use style="stroke:#000000;stroke-width:0.6;" x="281.781133" xlink:href="#m3949dc73b1" y="246.2"/>
      </g>
     </g>
    </g>
    <g id="xtick_25">
     <g id="line2d_31">
      <g>
       <use style="stroke:#000000;stroke-width:0.6;" x="292.482852" xlink:href="#m3949dc73b1" y="246.2"/>
      </g>
     </g>
    </g>
    <g id="xtick_26">
     <g id="line2d_32">
      <g>
       <use style="stroke:#000000;stroke-width:0.6;" x="303.18457" xlink:href="#m3949dc73b1" y="246.2"/>
      </g>
     </g>
    </g>
    <g id="xtick_27">
     <g id="line2d_33">
      <g>
       <use style="stroke:#000000;stroke-width:0.6;" x="313.886289" xlink:href="#m3949dc73b1" y="246.2"/>
      </g>
     </g>
    </g>
    <g id="xtick_28">
     <g id="line2d_34">
      <g>
       <use style="stroke:#000000;stroke-width:0.6;" x="335.289725" xlink:href="#m3949dc73b1" y="246.2"/>
      </g>
     </g>
    </g>
    <g id="xtick_29">
     <g id="line2d_35">
      <g>
       <use style="stroke:#000000;stroke-width:0.6;" x="345.991444" xlink:href="#m3949dc73b1" y="246.2"/>
      </g>
     </g>
    </g>
    <g id="xtick_30">
     <g id="line2d_36">
      <g>
       <use style="stroke:#000000;stroke-width:0.6;" x="356.693162" xlink:href="#m3949dc73b1" y="246.2"/>
      </g>
     </g>
    </g>
    <g id="xtick_31">
     <g id="line2d_37">
      <g>
       <use style="stroke:#000000;stroke-width:0.6;" x="367.394881" xlink:href="#m3949dc73b1" y="246.2"/>
      </g>
     </g>
    </g>
    <g id="xtick_32">
     <g id="line2d_38">
      <g>
       <use style="stroke:#000000;stroke-width:0.6;" x="378.096599" xlink:href="#m3949dc73b1" y="246.2"/>
      </g>
     </g>
    </g>
    <g id="xtick_33">
     <g id="line2d_39">
      <g>
       <use style="stroke:#000000;stroke-width:0.6;" x="399.500036" xlink:href="#m3949dc73b1" y="246.2"/>
      </g>
     </g>
    </g>
    <g id="xtick_34">
     <g id="line2d_40">
      <g>
       <use style="stroke:#000000;stroke-width:0.6;" x="410.201755" xlink:href="#m3949dc73b1" y="246.2"/>
      </g>
     </g>
    </g>
    <g id="xtick_35">
     <g id="line2d_41">
      <g>
       <use style="stroke:#000000;stroke-width:0.6;" x="420.903473" xlink:href="#m3949dc73b1" y="246.2"/>
      </g>
     </g>
    </g>
    <g id="text_7">
     <!-- Hours [h] -->
     <g transform="translate(212.754687 274.476562)scale(0.1 -0.1)">
      <defs>
       <path d="M 628 4666 
L 1259 4666 
L 1259 2753 
L 3553 2753 
L 3553 4666 
L 4184 4666 
L 4184 0 
L 3553 0 
L 3553 2222 
L 1259 2222 
L 1259 0 
L 628 0 
L 628 4666 
z
" id="DejaVuSans-48" transform="scale(0.015625)"/>
       <path d="M 1959 3097 
Q 1497 3097 1228 2736 
Q 959 2375 959 1747 
Q 959 1119 1226 758 
Q 1494 397 1959 397 
Q 2419 397 2687 759 
Q 2956 1122 2956 1747 
Q 2956 2369 2687 2733 
Q 2419 3097 1959 3097 
z
M 1959 3584 
Q 2709 3584 3137 3096 
Q 3566 2609 3566 1747 
Q 3566 888 3137 398 
Q 2709 -91 1959 -91 
Q 1206 -91 779 398 
Q 353 888 353 1747 
Q 353 2609 779 3096 
Q 1206 3584 1959 3584 
z
" id="DejaVuSans-6f" transform="scale(0.015625)"/>
       <path d="M 544 1381 
L 544 3500 
L 1119 3500 
L 1119 1403 
Q 1119 906 1312 657 
Q 1506 409 1894 409 
Q 2359 409 2629 706 
Q 2900 1003 2900 1516 
L 2900 3500 
L 3475 3500 
L 3475 0 
L 2900 0 
L 2900 538 
Q 2691 219 2414 64 
Q 2138 -91 1772 -91 
Q 1169 -91 856 284 
Q 544 659 544 1381 
z
M 1991 3584 
L 1991 3584 
z
" id="DejaVuSans-75" transform="scale(0.015625)"/>
       <path d="M 2631 2963 
Q 2534 3019 2420 3045 
Q 2306 3072 2169 3072 
Q 1681 3072 1420 2755 
Q 1159 2438 1159 1844 
L 1159 0 
L 581 0 
L 581 3500 
L 1159 3500 
L 1159 2956 
Q 1341 3275 1631 3429 
Q 1922 3584 2338 3584 
Q 2397 3584 2469 3576 
Q 2541 3569 2628 3553 
L 2631 2963 
z
" id="DejaVuSans-72" transform="scale(0.015625)"/>
       <path d="M 2834 3397 
L 2834 2853 
Q 2591 2978 2328 3040 
Q 2066 3103 1784 3103 
Q 1356 3103 1142 2972 
Q 928 2841 928 2578 
Q 928 2378 1081 2264 
Q 1234 2150 1697 2047 
L 1894 2003 
Q 2506 1872 2764 1633 
Q 3022 1394 3022 966 
Q 3022 478 2636 193 
Q 2250 -91 1575 -91 
Q 1294 -91 989 -36 
Q 684 19 347 128 
L 347 722 
Q 666 556 975 473 
Q 1284 391 1588 391 
Q 1994 391 2212 530 
Q 2431 669 2431 922 
Q 2431 1156 2273 1281 
Q 2116 1406 1581 1522 
L 1381 1569 
Q 847 1681 609 1914 
Q 372 2147 372 2553 
Q 372 3047 722 3315 
Q 1072 3584 1716 3584 
Q 2034 3584 2315 3537 
Q 2597 3491 2834 3397 
z
" id="DejaVuSans-73" transform="scale(0.015625)"/>
       <path id="DejaVuSans-20" transform="scale(0.015625)"/>
       <path d="M 550 4863 
L 1875 4863 
L 1875 4416 
L 1125 4416 
L 1125 -397 
L 1875 -397 
L 1875 -844 
L 550 -844 
L 550 4863 
z
" id="DejaVuSans-5b" transform="scale(0.015625)"/>
       <path d="M 3513 2113 
L 3513 0 
L 2938 0 
L 2938 2094 
Q 2938 2591 2744 2837 
Q 2550 3084 2163 3084 
Q 1697 3084 1428 2787 
Q 1159 2491 1159 1978 
L 1159 0 
L 581 0 
L 581 4863 
L 1159 4863 
L 1159 2956 
Q 1366 3272 1645 3428 
Q 1925 3584 2291 3584 
Q 2894 3584 3203 3211 
Q 3513 2838 3513 2113 
z
" id="DejaVuSans-68" transform="scale(0.015625)"/>
       <path d="M 1947 4863 
L 1947 -844 
L 622 -844 
L 622 -397 
L 1369 -397 
L 1369 4416 
L 622 4416 
L 622 4863 
L 1947 4863 
z
" id="DejaVuSans-5d" transform="scale(0.015625)"/>
      </defs>
      <use xlink:href="#DejaVuSans-48"/>
      <use x="75.195312" xlink:href="#DejaVuSans-6f"/>
      <use x="136.376953" xlink:href="#DejaVuSans-75"/>
      <use x="199.755859" xlink:href="#DejaVuSans-72"/>
      <use x="240.869141" xlink:href="#DejaVuSans-73"/>
      <use x="292.96875" xlink:href="#DejaVuSans-20"/>
      <use x="324.755859" xlink:href="#DejaVuSans-5b"/>
      <use x="363.769531" xlink:href="#DejaVuSans-68"/>
      <use x="427.148438" xlink:href="#DejaVuSans-5d"/>
     </g>
    </g>
   </g>
   <g id="matplotlib.axis_2">
    <g id="ytick_1">
     <g id="line2d_42">
      <path clip-path="url(#p54b5d27139)" d="M 50.925 236.227273 
L 421.2 236.227273 
" style="fill:none;stroke:#b0b0b0;stroke-linecap:square;stroke-width:0.8;"/>
     </g>
     <g id="line2d_43">
      <defs>
       <path d="M 0 0 
L -3.5 0 
" id="m778d16df51" style="stroke:#000000;stroke-width:0.8;"/>
      </defs>
      <g>
       <use style="stroke:#000000;stroke-width:0.8;" x="50.925" xlink:href="#m778d16df51" y="236.227273"/>
      </g>
     </g>
     <g id="text_8">
      <!-- 0 -->
      <g transform="translate(37.5625 240.026491)scale(0.1 -0.1)">
       <use xlink:href="#DejaVuSans-30"/>
      </g>
     </g>
    </g>
    <g id="ytick_2">
     <g id="line2d_44">
      <path clip-path="url(#p54b5d27139)" d="M 50.925 189.461846 
L 421.2 189.461846 
" style="fill:none;stroke:#b0b0b0;stroke-linecap:square;stroke-width:0.8;"/>
     </g>
     <g id="line2d_45">
      <g>
       <use style="stroke:#000000;stroke-width:0.8;" x="50.925" xlink:href="#m778d16df51" y="189.461846"/>
      </g>
     </g>
     <g id="text_9">
      <!-- 200 -->
      <g transform="translate(24.8375 193.261065)scale(0.1 -0.1)">
       <use xlink:href="#DejaVuSans-32"/>
       <use x="63.623047" xlink:href="#DejaVuSans-30"/>
       <use x="127.246094" xlink:href="#DejaVuSans-30"/>
      </g>
     </g>
    </g>
    <g id="ytick_3">
     <g id="line2d_46">
      <path clip-path="url(#p54b5d27139)" d="M 50.925 142.696419 
L 421.2 142.696419 
" style="fill:none;stroke:#b0b0b0;stroke-linecap:square;stroke-width:0.8;"/>
     </g>
     <g id="line2d_47">
      <g>
       <use style="stroke:#000000;stroke-width:0.8;" x="50.925" xlink:href="#m778d16df51" y="142.696419"/>
      </g>
     </g>
     <g id="text_10">
      <!-- 400 -->
      <g transform="translate(24.8375 146.495638)scale(0.1 -0.1)">
       <use xlink:href="#DejaVuSans-34"/>
       <use x="63.623047" xlink:href="#DejaVuSans-30"/>
       <use x="127.246094" xlink:href="#DejaVuSans-30"/>
      </g>
     </g>
    </g>
    <g id="ytick_4">
     <g id="line2d_48">
      <path clip-path="url(#p54b5d27139)" d="M 50.925 95.930992 
L 421.2 95.930992 
" style="fill:none;stroke:#b0b0b0;stroke-linecap:square;stroke-width:0.8;"/>
     </g>
     <g id="line2d_49">
      <g>
       <use style="stroke:#000000;stroke-width:0.8;" x="50.925" xlink:href="#m778d16df51" y="95.930992"/>
      </g>
     </g>
     <g id="text_11">
      <!-- 600 -->
      <g transform="translate(24.8375 99.730211)scale(0.1 -0.1)">
       <use xlink:href="#DejaVuSans-36"/>
       <use x="63.623047" xlink:href="#DejaVuSans-30"/>
       <use x="127.246094" xlink:href="#DejaVuSans-30"/>
      </g>
     </g>
    </g>
    <g id="ytick_5">
     <g id="line2d_50">
      <path clip-path="url(#p54b5d27139)" d="M 50.925 49.165565 
L 421.2 49.165565 
" style="fill:none;stroke:#b0b0b0;stroke-linecap:square;stroke-width:0.8;"/>
     </g>
     <g id="line2d_51">
      <g>
       <use style="stroke:#000000;stroke-width:0.8;" x="50.925" xlink:href="#m778d16df51" y="49.165565"/>
      </g>
     </g>
     <g id="text_12">
      <!-- 800 -->
      <g transform="translate(24.8375 52.964784)scale(0.1 -0.1)">
       <use xlink:href="#DejaVuSans-38"/>
       <use x="63.623047" xlink:href="#DejaVuSans-30"/>
       <use x="127.246094" xlink:href="#DejaVuSans-30"/>
      </g>
     </g>
    </g>
    <g id="text_13">
     <!-- N° Rules -->
     <g transform="translate(18.757812 157.817969)rotate(-90)scale(0.1 -0.1)">
      <defs>
       <path d="M 628 4666 
L 1478 4666 
L 3547 763 
L 3547 4666 
L 4159 4666 
L 4159 0 
L 3309 0 
L 1241 3903 
L 1241 0 
L 628 0 
L 628 4666 
z
" id="DejaVuSans-4e" transform="scale(0.015625)"/>
       <path d="M 1600 4347 
Q 1350 4347 1178 4173 
Q 1006 4000 1006 3750 
Q 1006 3503 1178 3333 
Q 1350 3163 1600 3163 
Q 1850 3163 2022 3333 
Q 2194 3503 2194 3750 
Q 2194 3997 2020 4172 
Q 1847 4347 1600 4347 
z
M 1600 4750 
Q 1800 4750 1984 4673 
Q 2169 4597 2303 4453 
Q 2447 4313 2519 4134 
Q 2591 3956 2591 3750 
Q 2591 3338 2302 3052 
Q 2013 2766 1594 2766 
Q 1172 2766 890 3047 
Q 609 3328 609 3750 
Q 609 4169 896 4459 
Q 1184 4750 1600 4750 
z
" id="DejaVuSans-b0" transform="scale(0.015625)"/>
       <path d="M 2841 2188 
Q 3044 2119 3236 1894 
Q 3428 1669 3622 1275 
L 4263 0 
L 3584 0 
L 2988 1197 
Q 2756 1666 2539 1819 
Q 2322 1972 1947 1972 
L 1259 1972 
L 1259 0 
L 628 0 
L 628 4666 
L 2053 4666 
Q 2853 4666 3247 4331 
Q 3641 3997 3641 3322 
Q 3641 2881 3436 2590 
Q 3231 2300 2841 2188 
z
M 1259 4147 
L 1259 2491 
L 2053 2491 
Q 2509 2491 2742 2702 
Q 2975 2913 2975 3322 
Q 2975 3731 2742 3939 
Q 2509 4147 2053 4147 
L 1259 4147 
z
" id="DejaVuSans-52" transform="scale(0.015625)"/>
       <path d="M 603 4863 
L 1178 4863 
L 1178 0 
L 603 0 
L 603 4863 
z
" id="DejaVuSans-6c" transform="scale(0.015625)"/>
       <path d="M 3597 1894 
L 3597 1613 
L 953 1613 
Q 991 1019 1311 708 
Q 1631 397 2203 397 
Q 2534 397 2845 478 
Q 3156 559 3463 722 
L 3463 178 
Q 3153 47 2828 -22 
Q 2503 -91 2169 -91 
Q 1331 -91 842 396 
Q 353 884 353 1716 
Q 353 2575 817 3079 
Q 1281 3584 2069 3584 
Q 2775 3584 3186 3129 
Q 3597 2675 3597 1894 
z
M 3022 2063 
Q 3016 2534 2758 2815 
Q 2500 3097 2075 3097 
Q 1594 3097 1305 2825 
Q 1016 2553 972 2059 
L 3022 2063 
z
" id="DejaVuSans-65" transform="scale(0.015625)"/>
      </defs>
      <use xlink:href="#DejaVuSans-4e"/>
      <use x="74.804688" xlink:href="#DejaVuSans-b0"/>
      <use x="124.804688" xlink:href="#DejaVuSans-20"/>
      <use x="156.591797" xlink:href="#DejaVuSans-52"/>
      <use x="221.574219" xlink:href="#DejaVuSans-75"/>
      <use x="284.953125" xlink:href="#DejaVuSans-6c"/>
      <use x="312.736328" xlink:href="#DejaVuSans-65"/>
      <use x="374.259766" xlink:href="#DejaVuSans-73"/>
     </g>
    </g>
   </g>
   <g id="line2d_52">
    <path clip-path="url(#p54b5d27139)" d="M 67.755682 235.993446 
L 68.308604 229.446286 
L 68.371031 229.446286 
L 68.46913 228.978632 
L 68.51372 228.978632 
L 69.566056 222.431472 
L 69.690909 221.963818 
L 69.860353 221.028509 
L 70.270586 218.924065 
L 70.324094 218.924065 
L 70.466784 217.988756 
L 70.582719 217.988756 
L 70.832426 216.118139 
L 72.330666 211.441597 
L 72.428766 211.441597 
L 72.571455 210.506288 
L 72.616046 210.506288 
L 72.705227 209.804807 
L 72.892507 209.337152 
L 72.990606 209.103325 
L 73.079787 209.103325 
L 73.258149 208.168017 
L 73.516774 207.700362 
L 73.918088 206.531227 
L 74.025105 206.531227 
L 74.185631 205.595918 
L 74.720717 205.362091 
L 74.80098 204.894437 
L 74.899079 204.894437 
L 74.934751 204.66061 
L 75.344984 204.426782 
L 75.674953 203.491474 
L 75.773053 203.491474 
L 75.987087 203.02382 
L 76.031677 203.02382 
L 76.076268 202.556165 
L 76.611354 201.854684 
L 76.780798 201.38703 
L 76.878897 201.153203 
L 77.00375 201.153203 
L 77.37831 200.685548 
L 77.440737 200.217894 
L 77.779625 199.984067 
L 78.118513 199.048758 
L 78.127431 198.814931 
L 78.296875 198.814931 
L 79.456227 196.944314 
L 79.607835 196.47666 
L 79.821869 195.775179 
L 80.4283 194.83987 
L 80.553153 194.372216 
L 80.820696 194.138389 
L 80.892041 193.904561 
L 81.444963 193.436907 
L 81.953295 193.20308 
L 82.095985 192.735426 
L 82.25651 191.800117 
L 82.327855 191.332463 
L 82.452709 190.630982 
L 82.515135 190.397154 
L 82.702415 189.9295 
L 82.720251 189.695673 
L 82.836187 189.695673 
L 82.943204 189.228019 
L 83.076975 189.228019 
L 83.201829 188.994192 
L 83.3356 188.058883 
L 83.442617 188.058883 
L 84.55738 185.954439 
L 84.735742 185.954439 
L 84.93194 185.720612 
L 85.172729 185.720612 
L 85.297582 185.486785 
L 85.538371 185.486785 
L 85.68106 185.252957 
L 86.216146 184.785303 
L 86.225064 184.551476 
L 86.555034 184.551476 
L 86.893922 184.317649 
L 86.965266 184.083822 
L 87.161465 183.849995 
L 87.990848 183.849995 
L 88.008684 183.616168 
L 88.204882 183.616168 
L 88.2138 183.38234 
L 89.043183 181.979378 
L 89.176955 181.277896 
L 89.560433 181.277896 
L 89.81014 180.810242 
L 89.908239 180.108761 
L 90.273881 180.108761 
L 90.354144 179.874933 
L 90.666277 179.407279 
L 90.675196 179.173452 
L 90.93382 178.705798 
L 91.103264 178.238143 
L 91.763204 177.770489 
L 91.923729 177.770489 
L 92.039665 177.536662 
L 92.449897 177.302835 
L 92.90472 176.133699 
L 93.573578 175.432218 
L 93.662759 175.432218 
L 93.850039 175.198391 
L 94.304862 175.198391 
L 94.590241 174.730736 
L 94.715094 174.263082 
L 95.053982 173.795428 
L 95.169917 173.093946 
L 95.446378 172.860119 
L 95.76743 172.860119 
L 95.901201 172.626292 
L 96.213335 172.392465 
L 96.240089 172.158638 
L 96.766257 171.924811 
L 96.793011 171.690984 
L 97.372688 171.690984 
L 97.586722 171.457157 
L 97.658067 170.755675 
L 97.827511 170.755675 
L 97.898856 170.521848 
L 98.30017 170.521848 
L 99.548704 169.118885 
L 100.003527 168.651231 
L 100.030281 168.417404 
L 100.27107 167.94975 
L 100.31566 167.482095 
L 100.592121 167.482095 
L 100.636712 167.248268 
L 100.806156 167.014441 
L 101.39475 166.546787 
L 101.501767 166.079132 
L 101.867409 166.079132 
L 102.001181 165.377651 
L 102.375741 165.377651 
L 102.393577 165.143824 
L 102.723547 165.143824 
L 102.777056 164.909997 
L 103.285387 164.442343 
L 103.463749 164.208515 
L 103.954245 163.974688 
L 104.355559 163.03938 
L 104.364477 162.805553 
L 105.042253 162.337898 
L 105.184942 162.104071 
L 105.452485 162.104071 
L 105.693274 161.636417 
L 106.504821 161.40259 
L 106.665347 161.168763 
L 107.557156 161.168763 
L 107.592829 160.934936 
L 107.878208 160.467281 
L 108.145751 159.999627 
L 108.38654 159.531973 
L 108.859199 159.298146 
L 109.117824 158.362837 
L 109.207005 158.362837 
L 109.421039 158.12901 
L 109.920453 157.895183 
L 110.954952 156.024566 
L 111.142232 156.024566 
L 111.534628 155.790739 
L 111.81109 155.790739 
L 111.864598 155.323084 
L 112.04296 155.323084 
L 112.479947 154.621603 
L 113.576873 154.153949 
L 113.799826 153.920121 
L 113.969269 153.920121 
L 114.040614 153.686294 
L 114.317075 153.686294 
L 114.441929 153.452467 
L 114.71839 153.452467 
L 114.798653 152.984813 
L 114.994851 152.984813 
L 115.619118 152.517159 
L 115.886661 152.283332 
L 116.127449 151.58185 
L 116.635781 151.348023 
L 117.447328 151.114196 
L 118.018086 150.646542 
L 118.865306 150.178887 
L 119.239866 149.009752 
L 119.498491 149.009752 
L 120.916468 148.30827 
L 121.808278 148.074443 
L 122.200675 147.840616 
L 122.272019 147.606789 
L 122.610907 147.606789 
L 122.860614 147.139135 
L 123.413536 147.139135 
L 123.689997 146.905307 
L 124.644234 146.905307 
L 124.858268 146.437653 
L 125.750078 146.437653 
L 125.803586 146.203826 
L 126.142474 145.736172 
L 126.659724 145.736172 
L 126.713232 145.268518 
L 127.399926 145.268518 
L 127.444517 145.03469 
L 127.997439 144.567036 
L 128.425507 144.567036 
L 129.549188 143.631728 
L 130.039683 143.631728 
L 131.065265 142.930246 
L 131.529006 141.994938 
L 131.778713 141.994938 
L 132.019501 141.761111 
L 132.215699 141.761111 
L 133.936892 140.591975 
L 135.613495 140.358148 
L 135.934547 140.124321 
L 135.996973 139.890493 
L 136.291271 139.890493 
L 137.022555 138.955185 
L 137.165244 138.955185 
L 137.254425 138.721358 
L 137.379279 138.721358 
L 137.477378 138.487531 
L 138.083808 138.253704 
L 138.128399 138.019876 
L 138.244334 138.019876 
L 138.360269 137.552222 
L 138.815092 137.318395 
L 139.305588 136.616914 
L 139.71582 136.616914 
L 139.912019 136.383086 
L 139.938773 136.149259 
L 140.081462 135.915432 
L 141.160552 135.213951 
L 141.178389 134.980124 
L 141.784819 134.980124 
L 142.114789 134.746296 
L 143.033353 134.746296 
L 143.051189 134.512469 
L 143.202797 134.512469 
L 143.220633 134.278642 
L 143.416831 133.810988 
L 143.461422 133.343334 
L 143.969754 133.343334 
L 144.03218 133.109507 
L 144.237296 133.109507 
L 144.995335 132.875679 
L 145.548257 132.408025 
L 147.635092 132.408025 
L 147.97398 132.174198 
L 148.045325 131.940371 
L 148.651755 131.940371 
L 149.454384 131.472717 
L 149.811108 131.238889 
L 150.17675 131.238889 
L 150.613737 131.005062 
L 150.925871 131.005062 
L 151.853353 130.771235 
L 152.049551 130.537408 
L 152.548964 130.303581 
L 152.762999 129.835927 
L 153.315921 129.835927 
L 153.690481 129.368272 
L 153.97586 129.134445 
L 154.172058 128.432964 
L 154.279076 128.432964 
L 154.368257 128.199137 
L 154.671472 128.199137 
L 154.796325 127.96531 
L 155.705971 127.731482 
L 155.732726 127.497655 
L 155.866497 127.497655 
L 156.900997 126.796174 
L 157.293393 126.796174 
L 157.364738 126.562347 
L 157.873069 126.562347 
L 158.158449 126.32852 
L 158.256548 125.860865 
L 158.43491 125.860865 
L 158.515173 125.627038 
L 159.005668 125.627038 
L 159.059177 125.393211 
L 159.638853 125.159384 
L 159.70128 124.925557 
L 160.040167 124.457903 
L 160.07584 124.224075 
L 160.673352 123.756421 
L 161.458145 123.05494 
L 162.073494 123.05494 
L 162.198347 122.587286 
L 162.367791 122.119631 
L 162.60858 121.885804 
L 162.626416 121.651977 
L 162.813696 121.41815 
L 164.499217 121.41815 
L 164.891613 120.950496 
L 165.51588 120.950496 
L 167.745405 120.015187 
L 168.19131 119.547533 
L 168.414262 119.547533 
L 168.663969 119.079879 
L 169.760895 118.378397 
L 170.510015 117.443089 
L 170.679459 117.443089 
L 170.947002 117.209261 
L 171.446416 116.975434 
L 172.659277 116.975434 
L 173.96132 116.50778 
L 174.014828 116.273953 
L 175.138509 116.273953 
L 175.744939 115.572471 
L 176.645667 115.104817 
L 176.824029 114.637163 
L 176.931046 114.637163 
L 177.216426 114.403336 
L 177.733675 114.169509 
L 178.616567 113.935682 
L 179.419196 113.2342 
L 180.043463 113.2342 
L 180.881764 113.000373 
L 181.113635 112.766546 
L 181.568458 112.532719 
L 181.630884 112.065064 
L 181.871673 111.831237 
L 183.138043 111.831237 
L 183.182634 111.59741 
L 183.771228 111.129756 
L 184.172543 111.129756 
L 184.226051 110.895929 
L 184.46684 110.895929 
L 184.787891 110.662102 
L 184.903827 110.428275 
L 185.679701 109.96062 
L 185.849145 109.726793 
L 186.125606 109.726793 
L 186.143442 109.492966 
L 187.204696 109.025312 
L 187.284959 109.025312 
L 187.918144 108.32383 
L 190.566819 107.856176 
L 190.977052 107.622349 
L 191.191086 107.154695 
L 191.307022 106.453213 
L 191.449711 106.453213 
L 192.270176 106.219386 
L 192.591228 105.985559 
L 192.965788 105.985559 
L 193.51871 105.517905 
L 194.160813 105.284078 
L 194.802916 105.284078 
L 195.177476 105.05025 
L 195.989023 104.816423 
L 196.98785 104.816423 
L 197.041359 104.582596 
L 197.629954 104.348769 
L 198.013432 103.881115 
L 198.851733 103.647288 
L 198.985505 103.413461 
L 199.458164 103.413461 
L 199.948659 102.945806 
L 202.026576 102.478152 
L 202.418973 101.776671 
L 203.266192 101.309016 
L 204.3542 101.075189 
L 204.630661 100.841362 
L 205.522471 100.607535 
L 205.66516 100.373708 
L 206.904776 100.139881 
L 207.172319 99.906054 
L 208.848922 99.906054 
L 208.964857 99.438399 
L 209.776404 99.204572 
L 209.910175 98.736918 
L 210.052865 98.736918 
L 210.463098 98.269264 
L 211.595696 97.567782 
L 212.318062 97.567782 
L 212.603441 97.333955 
L 213.459579 97.100128 
L 213.522005 96.866301 
L 213.851975 96.632474 
L 214.217617 95.930992 
L 214.431652 95.697165 
L 215.430479 95.697165 
L 215.653431 95.463338 
L 216.429306 95.229511 
L 216.696849 95.229511 
L 216.714685 94.995684 
L 216.919801 94.761857 
L 217.633249 94.528029 
L 218.034563 94.060375 
L 218.355615 94.060375 
L 218.935291 93.826548 
L 219.211752 93.826548 
L 219.238507 93.592721 
L 219.425787 93.358894 
L 219.586313 93.358894 
L 220.620812 93.125067 
L 220.718911 92.657412 
L 221.744493 92.657412 
L 221.771247 92.423585 
L 223.144634 92.189758 
L 223.394341 91.955931 
L 223.920509 91.955931 
L 227.469912 90.552968 
L 227.559093 90.552968 
L 227.585847 90.319141 
L 228.638183 89.851487 
L 229.654846 89.851487 
L 230.065079 89.61766 
L 231.491974 89.61766 
L 232.009224 89.383832 
L 232.232177 88.916178 
L 232.571064 88.448524 
L 233.882025 88.448524 
L 233.917697 88.214697 
L 234.104977 87.98087 
L 234.987869 87.513215 
L 235.068132 87.279388 
L 235.21974 87.279388 
L 235.424856 87.045561 
L 236.334502 86.811734 
L 236.637717 86.577907 
L 237.253066 86.34408 
L 241.159193 85.642598 
L 241.533754 84.941117 
L 241.640771 84.941117 
L 242.63068 84.473463 
L 242.666352 84.239636 
L 243.495735 84.239636 
L 243.736524 83.771981 
L 244.102166 83.771981 
L 244.182429 83.538154 
L 245.029648 83.538154 
L 248.106392 82.602846 
L 248.998202 82.135191 
L 249.131974 81.901364 
L 249.560042 81.667537 
L 250.246736 81.667537 
L 250.407262 81.43371 
L 252.155209 80.966056 
L 252.404916 80.498401 
L 253.118364 80.030747 
L 254.090437 80.030747 
L 254.197454 79.79692 
L 254.482833 79.563093 
L 255.740285 79.563093 
L 255.99891 79.095439 
L 256.239698 79.095439 
L 256.37347 78.861611 
L 257.283116 78.861611 
L 257.318788 78.627784 
L 258.567322 77.692476 
L 261.403278 77.224821 
L 261.840264 77.224821 
L 262.660729 76.990994 
L 262.874764 76.52334 
L 263.704147 76.289513 
L 263.953854 76.055686 
L 264.132216 76.055686 
L 264.283823 75.821859 
L 264.587039 75.821859 
L 264.765401 75.588032 
L 267.467585 75.354204 
L 268.635856 75.354204 
L 269.162023 75.120377 
L 269.295795 74.652723 
L 270.044915 74.185069 
L 270.571083 74.185069 
L 273.531892 72.782106 
L 273.808353 72.782106 
L 273.951042 72.548279 
L 275.88627 72.548279 
L 276.028959 72.314452 
L 278.294157 72.080625 
L 279.043277 71.846797 
L 279.159212 71.61297 
L 279.676462 71.379143 
L 280.470173 70.911489 
L 280.675289 70.677662 
L 281.353064 70.210007 
L 282.209202 70.210007 
L 282.351891 69.742353 
L 282.432154 69.508526 
L 282.824551 69.274699 
L 283.234783 69.274699 
L 284.251446 68.807045 
L 284.358464 68.573218 
L 285.714015 68.573218 
L 286.186674 68.33939 
L 288.023802 68.105563 
L 288.041638 67.871736 
L 291.136219 66.7026 
L 293.900829 66.7026 
L 293.927584 66.468773 
L 294.409161 66.234946 
L 294.971001 66.234946 
L 296.219535 66.001119 
L 296.451406 65.767292 
L 298.217189 65.767292 
L 299.965136 65.299638 
L 301.40095 65.299638 
L 301.820101 65.065811 
L 302.328433 65.065811 
L 302.720829 64.831983 
L 304.299332 64.598156 
L 304.343923 64.364329 
L 304.611466 64.364329 
L 304.736319 64.130502 
L 305.333832 64.130502 
L 305.458685 63.896675 
L 307.474176 63.662848 
L 309.257795 63.195193 
L 309.641274 62.961366 
L 310.809544 62.727539 
L 311.353548 62.259885 
L 311.790535 62.259885 
L 313.092578 62.026058 
L 313.146086 61.792231 
L 313.520646 61.558403 
L 316.196076 61.324576 
L 316.873852 61.090749 
L 317.400019 61.090749 
L 318.5237 60.856922 
L 320.664044 60.856922 
L 321.083194 60.623095 
L 323.063012 60.389268 
L 323.838887 59.921614 
L 324.935813 59.687786 
L 325.060666 59.453959 
L 325.568998 59.453959 
L 326.487562 59.220132 
L 326.781859 58.986305 
L 327.05832 58.986305 
L 327.709342 58.752478 
L 328.699251 58.518651 
L 328.877612 58.050996 
L 329.903194 57.817169 
L 329.956702 57.583342 
L 330.161819 57.583342 
L 330.286672 57.349515 
L 331.1874 57.349515 
L 331.998947 56.414207 
L 332.097046 55.946552 
L 332.614296 55.712725 
L 332.64105 55.478898 
L 332.810494 55.245071 
L 333.363416 55.245071 
L 333.72014 54.777417 
L 335.92291 54.543589 
L 339.668512 54.543589 
L 340.453305 54.075935 
L 341.015145 53.842108 
L 343.467622 53.842108 
L 344.011626 53.374454 
L 344.234578 53.140627 
L 345.322587 53.140627 
L 345.652556 52.9068 
L 347.516439 52.672972 
L 348.961171 52.205318 
L 349.353567 51.971491 
L 350.441575 51.737664 
L 350.459411 51.503837 
L 351.395812 51.036182 
L 351.6366 50.802355 
L 353.438056 50.100874 
L 353.705599 49.63322 
L 354.044487 49.63322 
L 355.810271 49.399393 
L 356.015387 49.165565 
L 357.495791 48.931738 
L 358.120058 48.464084 
L 358.548127 48.230257 
L 359.163476 48.230257 
L 359.769906 47.99643 
L 360.97385 47.99643 
L 361.829987 47.762603 
L 362.133203 47.528775 
L 363.800887 47.294948 
L 364.175447 47.061121 
L 364.995912 46.827294 
L 365.397227 46.593467 
L 365.655852 46.593467 
L 365.682606 46.35964 
L 366.378218 46.35964 
L 366.55658 46.125813 
L 366.583334 45.891986 
L 367.323536 45.891986 
L 368.679087 45.658158 
L 368.991221 45.424331 
L 369.169583 44.956677 
L 371.140482 44.72285 
L 371.390189 44.489023 
L 375.965174 44.489023 
L 376.758885 44.255196 
L 378.569259 44.021368 
L 378.988409 43.787541 
L 380.388551 43.787541 
L 380.540158 43.553714 
L 382.484304 43.08606 
L 382.814274 42.852233 
L 383.367196 42.618406 
L 383.973626 42.618406 
L 385.445113 42.150751 
L 385.757246 41.916924 
L 385.998035 41.916924 
L 386.363677 41.683097 
L 387.014698 41.683097 
L 388.7894 41.215443 
L 389.065861 40.981616 
L 389.155042 40.747789 
L 389.993343 40.747789 
L 393.462483 40.046307 
L 393.569501 39.81248 
L 394.443474 39.578653 
L 395.620663 39.578653 
L 396.860279 38.877171 
L 397.002969 38.643344 
L 398.634981 38.643344 
L 400.37401 38.409517 
L 400.570208 38.17569 
L 401.230147 37.708036 
L 401.274738 37.474209 
L 402.550026 37.474209 
L 402.987013 37.240382 
L 404.369318 36.772727 
L 404.369318 36.772727 
" style="fill:none;stroke:#1f77b4;stroke-linecap:square;stroke-width:1.5;"/>
   </g>
   <g id="line2d_53">
    <path clip-path="url(#p54b5d27139)" d="M 67.755682 236.227273 
L 67.800272 236.227273 
L 67.871617 235.525791 
L 67.889453 235.525791 
L 68.014307 235.291964 
L 68.112406 235.291964 
L 68.121324 234.82431 
L 68.210505 234.82431 
L 68.299686 234.82431 
L 68.415621 234.122829 
L 68.959625 234.122829 
L 69.039888 233.889001 
L 69.155823 233.889001 
L 69.298513 233.421347 
L 69.467957 233.421347 
L 69.566056 233.18752 
L 69.664155 233.18752 
L 69.771172 232.953693 
L 69.815763 232.953693 
L 69.96737 232.252211 
L 70.11006 232.252211 
L 70.234913 232.018384 
L 70.29734 232.018384 
L 70.48462 231.316903 
L 70.903771 231.316903 
L 70.975115 231.083076 
L 71.429938 231.083076 
L 71.492365 230.849249 
L 71.911516 230.849249 
L 71.956106 230.615422 
L 72.491192 230.615422 
L 72.651718 230.147767 
L 72.954933 230.147767 
L 73.097623 229.680113 
L 73.918088 229.680113 
L 74.141041 229.446286 
L 74.80098 229.446286 
L 74.934751 229.212459 
L 75.291475 229.212459 
L 75.416329 228.978632 
L 75.532264 228.978632 
L 75.674953 228.744804 
L 75.835479 228.510977 
L 76.5846 228.510977 
L 76.647026 228.27715 
L 76.762962 228.27715 
L 76.878897 228.043323 
L 77.00375 227.809496 
L 77.226703 227.809496 
L 77.440737 227.341842 
L 78.127431 227.341842 
L 78.296875 227.108014 
L 78.947896 227.108014 
L 79.045995 226.874187 
L 82.21192 226.874187 
L 82.327855 226.64036 
L 82.720251 226.64036 
L 82.943204 226.172706 
L 83.094812 226.172706 
L 83.201829 225.938879 
L 83.576389 225.938879 
L 83.603143 225.705052 
L 83.736915 225.705052 
L 83.754751 225.471225 
L 84.298755 225.471225 
L 84.432526 225.237397 
L 84.503871 225.237397 
L 84.735742 224.302089 
L 84.93194 224.302089 
L 85.538371 223.834435 
L 85.600797 223.834435 
L 85.68106 223.600607 
L 85.948603 223.600607 
L 86.225064 223.36678 
L 86.492607 222.899126 
L 86.555034 222.665299 
L 88.008684 222.665299 
L 88.2138 222.431472 
L 89.176955 222.431472 
L 89.399907 222.197645 
L 89.908239 222.197645 
L 89.99742 221.963818 
L 90.354144 221.72999 
L 91.905893 221.72999 
L 91.923729 221.496163 
L 92.53016 221.496163 
L 92.663932 221.262336 
L 92.877966 221.262336 
L 92.90472 221.028509 
L 93.127673 221.028509 
L 93.181181 220.794682 
L 93.850039 220.794682 
L 94.304862 220.560855 
L 95.000473 220.560855 
L 95.152081 220.327028 
L 95.366115 220.327028 
L 95.446378 220.0932 
L 95.901201 219.859373 
L 96.793011 219.859373 
L 97.372688 219.625546 
L 97.658067 219.625546 
L 98.30017 218.924065 
L 100.226479 218.924065 
L 100.31566 218.690238 
L 101.145043 218.690238 
L 101.234224 218.456411 
L 102.152789 218.456411 
L 102.393577 218.222583 
L 102.732465 218.222583 
L 102.777056 217.988756 
L 105.621929 217.988756 
L 105.693274 217.754929 
L 107.093415 217.754929 
L 107.334204 217.287275 
L 107.771191 217.287275 
L 107.878208 217.053448 
L 109.305104 217.053448 
L 109.421039 216.819621 
L 110.250422 216.819621 
L 110.295013 216.585793 
L 110.535801 216.585793 
L 110.660655 216.351966 
L 111.534628 216.351966 
L 111.864598 216.118139 
L 113.799826 216.118139 
L 114.040614 215.884312 
L 115.235639 214.949004 
L 115.431838 214.949004 
L 115.619118 214.715176 
L 119.22203 214.715176 
L 119.239866 214.481349 
L 119.498491 214.247522 
L 119.988986 214.247522 
L 120.167348 214.013695 
L 120.336792 214.013695 
L 120.684598 213.779868 
L 122.50389 213.779868 
L 122.610907 213.546041 
L 124.858268 213.546041 
L 125.027712 213.312214 
L 126.142474 213.312214 
L 127.444517 212.610732 
L 127.729896 212.610732 
L 127.997439 212.376905 
L 128.425507 212.143078 
L 131.529006 212.143078 
L 131.778713 211.909251 
L 132.206781 211.909251 
L 132.215699 211.675424 
L 135.256771 211.675424 
L 135.613495 211.441597 
L 135.996973 211.441597 
L 136.469632 211.207769 
L 137.254425 211.207769 
L 137.477378 210.973942 
L 138.128399 210.973942 
L 138.360269 210.740115 
L 142.114789 210.740115 
L 143.372241 210.506288 
L 143.461422 210.506288 
L 143.61303 210.272461 
L 144.237296 209.804807 
L 146.689774 209.804807 
L 148.30395 209.337152 
L 148.562574 209.103325 
L 148.651755 208.869498 
L 149.811108 208.869498 
L 150.17675 208.635671 
L 152.620309 208.635671 
L 152.762999 208.401844 
L 153.485365 208.168017 
L 154.172058 208.168017 
L 154.368257 207.934189 
L 154.796325 207.700362 
L 157.016932 207.700362 
L 157.364738 207.466535 
L 157.873069 207.232708 
L 158.256548 207.232708 
L 158.515173 206.998881 
L 159.059177 206.765054 
L 161.092503 206.765054 
L 161.119257 206.531227 
L 161.360046 206.531227 
L 161.458145 206.2974 
L 162.367791 206.063572 
L 162.813696 206.063572 
L 163.68767 205.829745 
L 163.759015 205.595918 
L 164.775678 205.362091 
L 164.891613 205.362091 
L 165.346436 205.128264 
L 168.119965 205.128264 
L 168.218064 204.894437 
L 168.663969 204.426782 
L 170.180046 204.426782 
L 170.331653 204.192955 
L 171.446416 204.192955 
L 171.892321 203.959128 
L 172.320389 203.959128 
L 172.659277 203.725301 
L 174.014828 203.725301 
L 174.683686 203.491474 
L 175.138509 203.02382 
L 176.333534 203.02382 
L 176.645667 202.789993 
L 180.828256 202.789993 
L 180.881764 202.556165 
L 184.208215 202.556165 
L 184.226051 202.322338 
L 184.46684 202.088511 
L 185.849145 202.088511 
L 186.143442 201.854684 
L 187.204696 201.854684 
L 187.284959 201.620857 
L 191.307022 201.620857 
L 191.449711 201.38703 
L 195.81958 201.38703 
L 195.989023 201.153203 
L 197.041359 200.919375 
L 197.763725 200.919375 
L 197.799397 200.685548 
L 198.985505 200.685548 
L 199.458164 200.451721 
L 201.250702 200.451721 
L 201.741197 200.217894 
L 205.326273 200.217894 
L 205.66516 199.75024 
L 207.172319 199.75024 
L 208.278163 199.516413 
L 208.884594 199.282586 
L 213.495251 199.282586 
L 213.522005 199.048758 
L 215.064837 199.048758 
L 215.091591 198.814931 
L 215.430479 198.581104 
L 216.259862 198.581104 
L 216.429306 198.347277 
L 218.034563 198.347277 
L 218.355615 198.11345 
L 218.828274 198.11345 
L 218.935291 197.879623 
L 219.425787 197.879623 
L 219.586313 197.645796 
L 220.692157 197.645796 
L 220.718911 197.411968 
L 227.166697 197.411968 
L 227.469912 196.944314 
L 230.065079 196.944314 
L 230.94797 196.710487 
L 232.802935 196.710487 
L 234.104977 196.242833 
L 235.068132 196.242833 
L 235.21974 196.009006 
L 236.610963 196.009006 
L 236.637717 195.775179 
L 238.662126 195.775179 
L 239.152621 195.541351 
L 242.666352 195.541351 
L 244.182429 195.073697 
L 249.943521 195.073697 
L 250.407262 194.83987 
L 253.118364 194.83987 
L 253.403743 194.606043 
L 256.177272 194.606043 
L 256.239698 194.372216 
L 256.37347 194.372216 
L 257.675512 194.138389 
L 261.403278 194.138389 
L 261.840264 193.904561 
L 264.283823 193.904561 
L 264.765401 193.670734 
L 267.307059 193.670734 
L 267.467585 193.436907 
L 273.264349 193.436907 
L 273.951042 192.969253 
L 274.646654 192.735426 
L 274.771508 192.501599 
L 275.377938 192.033944 
L 275.413611 191.800117 
L 276.028959 191.56629 
L 279.507018 191.56629 
L 279.676462 191.332463 
L 281.317392 191.332463 
L 281.353064 191.098636 
L 282.209202 190.864809 
L 282.824551 190.864809 
L 283.234783 190.630982 
L 283.778787 190.630982 
L 283.85905 190.397154 
L 284.215774 190.397154 
L 284.358464 190.163327 
L 284.982731 189.9295 
L 289.878767 189.9295 
L 290.110637 189.695673 
L 291.136219 189.695673 
L 294.409161 189.461846 
L 294.971001 189.228019 
L 299.965136 189.228019 
L 300.384287 188.994192 
L 301.820101 188.994192 
L 302.328433 188.760364 
L 304.343923 188.760364 
L 305.039535 188.29271 
L 312.816117 188.29271 
L 313.146086 188.058883 
L 316.873852 188.058883 
L 317.400019 187.825056 
L 318.5237 187.825056 
L 319.522527 187.591229 
L 320.583781 187.591229 
L 320.664044 187.357402 
L 325.301455 187.357402 
L 325.568998 187.123575 
L 326.781859 187.123575 
L 327.05832 186.889747 
L 329.956702 186.889747 
L 330.286672 186.65592 
L 335.789139 186.65592 
L 335.92291 186.422093 
L 338.419978 185.954439 
L 352.323294 185.954439 
L 352.358966 185.720612 
L 358.548127 185.720612 
L 359.163476 185.486785 
L 365.397227 185.486785 
L 365.914476 185.01913 
L 371.390189 185.01913 
L 374.868248 184.785303 
L 375.296316 184.551476 
L 375.965174 184.317649 
L 382.350532 184.317649 
L 382.484304 184.083822 
L 389.155042 184.083822 
L 389.993343 183.849995 
L 391.661027 183.849995 
L 392.329885 183.616168 
L 396.111159 183.616168 
L 396.289521 183.38234 
L 396.61949 183.38234 
L 396.860279 183.148513 
L 397.002969 183.148513 
L 398.21583 182.914686 
L 398.634981 182.680859 
L 404.369318 182.680859 
L 404.369318 182.680859 
" style="fill:none;stroke:#ff7f0e;stroke-linecap:square;stroke-width:1.5;"/>
   </g>
   <g id="line2d_54">
    <path clip-path="url(#p54b5d27139)" d="M 67.755682 236.227273 
L 68.005389 236.227273 
L 68.005389 235.993446 
L 68.112406 235.993446 
L 68.388867 235.993446 
L 68.549393 235.525791 
L 68.897198 235.525791 
L 69.039888 235.058137 
L 69.191496 234.82431 
L 69.289595 234.82431 
L 69.396612 234.590483 
L 69.664155 233.889001 
L 69.753336 233.889001 
L 69.860353 233.655174 
L 70.270586 233.655174 
L 70.431111 233.18752 
L 70.466784 233.18752 
L 70.600555 232.018384 
L 71.117805 232.018384 
L 71.224822 231.784557 
L 71.42102 231.784557 
L 71.492365 231.316903 
L 71.679645 231.083076 
L 72.179059 231.083076 
L 72.705227 230.147767 
L 73.900252 230.147767 
L 74.025105 229.91394 
L 74.586945 229.91394 
L 74.934751 229.212459 
L 75.630363 229.212459 
L 75.773053 228.978632 
L 75.987087 228.978632 
L 76.076268 228.744804 
L 76.647026 228.744804 
L 76.780798 228.510977 
L 77.984741 228.510977 
L 78.127431 227.809496 
L 78.4574 227.809496 
L 78.493073 227.575669 
L 80.107249 227.575669 
L 80.232102 227.341842 
L 82.479463 227.341842 
L 82.515135 227.108014 
L 82.943204 227.108014 
L 83.603143 226.172706 
L 83.959867 226.172706 
L 84.057966 225.938879 
L 84.432526 225.938879 
L 84.55738 225.705052 
L 84.860595 225.705052 
L 84.93194 225.471225 
L 87.161465 225.471225 
L 87.42009 225.237397 
L 88.160292 225.00357 
L 88.2138 224.769743 
L 89.399907 224.769743 
L 89.560433 224.535916 
L 91.763204 224.535916 
L 92.039665 224.068262 
L 92.851212 224.068262 
L 92.90472 223.834435 
L 93.083082 223.834435 
L 93.181181 223.600607 
L 93.662759 222.899126 
L 94.197845 222.899126 
L 94.304862 222.665299 
L 95.152081 222.665299 
L 95.169917 222.431472 
L 95.731758 222.431472 
L 95.76743 222.197645 
L 96.784093 222.197645 
L 96.793011 221.963818 
L 97.194326 221.963818 
L 97.372688 221.72999 
L 98.237743 221.72999 
L 98.30017 221.262336 
L 99.084963 221.262336 
L 99.218734 221.028509 
L 99.406014 221.028509 
L 99.548704 220.794682 
L 100.31566 220.794682 
L 100.636712 220.560855 
L 101.501767 220.560855 
L 102.777056 219.859373 
L 105.184942 219.859373 
L 105.452485 219.625546 
L 106.665347 219.625546 
L 107.173678 219.391719 
L 107.334204 219.391719 
L 107.592829 219.157892 
L 109.117824 219.157892 
L 109.305104 218.924065 
L 110.865771 218.924065 
L 111.142232 218.456411 
L 111.864598 218.456411 
L 112.167813 218.222583 
L 113.380675 218.222583 
L 113.576873 217.988756 
L 115.333739 217.988756 
L 115.431838 217.521102 
L 116.047186 217.521102 
L 116.127449 217.287275 
L 119.436064 217.287275 
L 119.498491 217.053448 
L 120.104921 217.053448 
L 120.167348 216.819621 
L 122.272019 216.819621 
L 122.610907 216.585793 
L 122.860614 216.585793 
L 123.689997 216.351966 
L 124.733415 216.118139 
L 124.858268 215.884312 
L 125.027712 215.884312 
L 125.999785 215.650485 
L 126.525952 215.650485 
L 126.713232 215.416658 
L 129.433253 215.416658 
L 129.549188 215.182831 
L 130.039683 214.949004 
L 131.288217 214.949004 
L 131.341726 214.715176 
L 132.019501 214.715176 
L 132.215699 214.481349 
L 132.599178 214.481349 
L 132.697277 214.247522 
L 135.961301 214.247522 
L 135.996973 214.013695 
L 137.022555 214.013695 
L 137.254425 213.779868 
L 138.957782 213.779868 
L 138.984536 213.546041 
L 139.305588 213.546041 
L 139.938773 213.312214 
L 141.178389 213.312214 
L 141.383505 213.078386 
L 141.784819 212.844559 
L 142.962008 212.844559 
L 143.220633 212.376905 
L 145.548257 212.376905 
L 146.368722 212.143078 
L 146.689774 211.909251 
L 149.302777 211.909251 
L 149.454384 211.675424 
L 150.613737 211.675424 
L 150.925871 211.441597 
L 152.736245 211.441597 
L 152.762999 211.207769 
L 153.6013 211.207769 
L 153.690481 210.973942 
L 155.732726 210.973942 
L 155.866497 210.740115 
L 156.900997 210.740115 
L 157.016932 210.506288 
L 162.760188 210.506288 
L 162.813696 210.272461 
L 164.713251 210.272461 
L 164.775678 210.038634 
L 165.221583 210.038634 
L 165.51588 209.337152 
L 167.103302 209.337152 
L 167.263827 209.103325 
L 168.19131 209.103325 
L 168.218064 208.869498 
L 169.430925 208.869498 
L 169.760895 208.635671 
L 169.921421 208.635671 
L 170.01952 208.401844 
L 170.510015 208.401844 
L 170.679459 208.168017 
L 171.892321 208.168017 
L 172.320389 207.934189 
L 175.031491 207.934189 
L 175.138509 207.700362 
L 175.41497 207.700362 
L 175.566577 207.466535 
L 176.824029 207.466535 
L 176.931046 207.232708 
L 179.419196 207.232708 
L 179.82051 206.998881 
L 180.043463 206.531227 
L 181.871673 206.531227 
L 183.468013 206.2974 
L 183.771228 206.2974 
L 184.226051 206.063572 
L 185.340814 206.063572 
L 185.447831 205.829745 
L 192.591228 205.829745 
L 192.965788 205.595918 
L 194.107305 205.595918 
L 194.160813 205.362091 
L 194.802916 205.128264 
L 201.589589 205.128264 
L 201.741197 204.894437 
L 203.239438 204.894437 
L 203.266192 204.66061 
L 206.860186 204.66061 
L 206.904776 204.426782 
L 208.688396 204.426782 
L 208.964857 204.192955 
L 209.910175 204.192955 
L 210.052865 203.959128 
L 211.595696 203.959128 
L 212.603441 203.725301 
L 214.15519 203.725301 
L 214.217617 203.491474 
L 214.431652 203.491474 
L 215.430479 203.02382 
L 216.429306 203.02382 
L 216.714685 202.789993 
L 218.935291 202.789993 
L 219.238507 202.556165 
L 220.718911 202.556165 
L 221.771247 202.322338 
L 223.394341 202.322338 
L 223.920509 202.088511 
L 227.469912 202.088511 
L 227.585847 201.854684 
L 228.638183 201.854684 
L 230.065079 201.620857 
L 230.94797 201.620857 
L 231.491974 201.38703 
L 232.571064 201.38703 
L 232.802935 201.153203 
L 234.5598 201.153203 
L 234.720326 200.919375 
L 239.669871 200.919375 
L 239.705543 200.685548 
L 241.159193 200.451721 
L 241.533754 200.451721 
L 241.640771 200.217894 
L 244.182429 200.217894 
L 245.029648 199.984067 
L 249.560042 199.984067 
L 249.943521 199.75024 
L 253.403743 199.75024 
L 254.197454 199.516413 
L 254.482833 199.516413 
L 254.705785 199.282586 
L 255.99891 198.814931 
L 256.239698 198.581104 
L 257.996564 198.581104 
L 258.130335 198.347277 
L 263.953854 198.347277 
L 264.132216 198.11345 
L 267.467585 198.11345 
L 269.17986 197.879623 
L 270.044915 197.879623 
L 270.571083 197.645796 
L 271.284531 197.645796 
L 271.534238 197.411968 
L 272.310112 197.411968 
L 272.452802 197.178141 
L 281.941659 197.178141 
L 282.351891 196.944314 
L 283.190193 196.944314 
L 283.234783 196.710487 
L 284.982731 196.710487 
L 285.714015 196.47666 
L 288.701578 196.47666 
L 288.817513 196.242833 
L 296.451406 196.242833 
L 299.0109 196.009006 
L 300.384287 196.009006 
L 301.151244 195.775179 
L 301.40095 195.541351 
L 305.039535 195.541351 
L 305.458685 195.307524 
L 311.353548 195.307524 
L 311.790535 195.073697 
L 319.522527 195.073697 
L 320.557026 194.83987 
L 320.664044 194.606043 
L 325.060666 194.606043 
L 325.301455 194.372216 
L 330.286672 194.372216 
L 331.419271 194.138389 
L 331.847339 194.138389 
L 332.034619 193.904561 
L 332.810494 193.904561 
L 333.497188 193.670734 
L 338.419978 193.670734 
L 339.971727 193.436907 
L 341.015145 193.436907 
L 341.987218 193.20308 
L 344.011626 192.969253 
L 344.234578 192.969253 
L 345.599048 192.735426 
L 345.652556 192.501599 
L 352.198441 192.501599 
L 352.358966 192.267772 
L 353.705599 192.267772 
L 354.044487 192.033944 
L 359.769906 192.033944 
L 360.97385 191.800117 
L 365.914476 191.800117 
L 366.583334 191.56629 
L 367.323536 191.332463 
L 378.970573 191.332463 
L 378.988409 191.098636 
L 380.540158 190.864809 
L 381.654921 190.864809 
L 382.056235 190.630982 
L 383.367196 190.630982 
L 383.973626 190.163327 
L 385.757246 190.163327 
L 385.998035 189.9295 
L 386.363677 189.9295 
L 387.014698 189.695673 
L 394.443474 189.695673 
L 396.111159 189.461846 
L 401.274738 189.461846 
L 402.987013 189.228019 
L 403.887741 189.228019 
L 404.369318 188.994192 
L 404.369318 188.994192 
" style="fill:none;stroke:#2ca02c;stroke-linecap:square;stroke-width:1.5;"/>
   </g>
   <g id="patch_3">
    <path d="M 50.925 246.2 
L 50.925 26.8 
" style="fill:none;stroke:#000000;stroke-linecap:square;stroke-linejoin:miter;stroke-width:0.8;"/>
   </g>
   <g id="patch_4">
    <path d="M 421.2 246.2 
L 421.2 26.8 
" style="fill:none;stroke:#000000;stroke-linecap:square;stroke-linejoin:miter;stroke-width:0.8;"/>
   </g>
   <g id="patch_5">
    <path d="M 50.925 246.2 
L 421.2 246.2 
" style="fill:none;stroke:#000000;stroke-linecap:square;stroke-linejoin:miter;stroke-width:0.8;"/>
   </g>
   <g id="patch_6">
    <path d="M 50.925 26.8 
L 421.2 26.8 
" style="fill:none;stroke:#000000;stroke-linecap:square;stroke-linejoin:miter;stroke-width:0.8;"/>
   </g>
   <g id="text_14">
    <!-- Number of Rules over time: RCE -->
    <g transform="translate(139.648125 20.8)scale(0.12 -0.12)">
     <defs>
      <path d="M 3328 2828 
Q 3544 3216 3844 3400 
Q 4144 3584 4550 3584 
Q 5097 3584 5394 3201 
Q 5691 2819 5691 2113 
L 5691 0 
L 5113 0 
L 5113 2094 
Q 5113 2597 4934 2840 
Q 4756 3084 4391 3084 
Q 3944 3084 3684 2787 
Q 3425 2491 3425 1978 
L 3425 0 
L 2847 0 
L 2847 2094 
Q 2847 2600 2669 2842 
Q 2491 3084 2119 3084 
Q 1678 3084 1418 2786 
Q 1159 2488 1159 1978 
L 1159 0 
L 581 0 
L 581 3500 
L 1159 3500 
L 1159 2956 
Q 1356 3278 1631 3431 
Q 1906 3584 2284 3584 
Q 2666 3584 2933 3390 
Q 3200 3197 3328 2828 
z
" id="DejaVuSans-6d" transform="scale(0.015625)"/>
      <path d="M 3116 1747 
Q 3116 2381 2855 2742 
Q 2594 3103 2138 3103 
Q 1681 3103 1420 2742 
Q 1159 2381 1159 1747 
Q 1159 1113 1420 752 
Q 1681 391 2138 391 
Q 2594 391 2855 752 
Q 3116 1113 3116 1747 
z
M 1159 2969 
Q 1341 3281 1617 3432 
Q 1894 3584 2278 3584 
Q 2916 3584 3314 3078 
Q 3713 2572 3713 1747 
Q 3713 922 3314 415 
Q 2916 -91 2278 -91 
Q 1894 -91 1617 61 
Q 1341 213 1159 525 
L 1159 0 
L 581 0 
L 581 4863 
L 1159 4863 
L 1159 2969 
z
" id="DejaVuSans-62" transform="scale(0.015625)"/>
      <path d="M 2375 4863 
L 2375 4384 
L 1825 4384 
Q 1516 4384 1395 4259 
Q 1275 4134 1275 3809 
L 1275 3500 
L 2222 3500 
L 2222 3053 
L 1275 3053 
L 1275 0 
L 697 0 
L 697 3053 
L 147 3053 
L 147 3500 
L 697 3500 
L 697 3744 
Q 697 4328 969 4595 
Q 1241 4863 1831 4863 
L 2375 4863 
z
" id="DejaVuSans-66" transform="scale(0.015625)"/>
      <path d="M 191 3500 
L 800 3500 
L 1894 563 
L 2988 3500 
L 3597 3500 
L 2284 0 
L 1503 0 
L 191 3500 
z
" id="DejaVuSans-76" transform="scale(0.015625)"/>
      <path d="M 1172 4494 
L 1172 3500 
L 2356 3500 
L 2356 3053 
L 1172 3053 
L 1172 1153 
Q 1172 725 1289 603 
Q 1406 481 1766 481 
L 2356 481 
L 2356 0 
L 1766 0 
Q 1100 0 847 248 
Q 594 497 594 1153 
L 594 3053 
L 172 3053 
L 172 3500 
L 594 3500 
L 594 4494 
L 1172 4494 
z
" id="DejaVuSans-74" transform="scale(0.015625)"/>
      <path d="M 603 3500 
L 1178 3500 
L 1178 0 
L 603 0 
L 603 3500 
z
M 603 4863 
L 1178 4863 
L 1178 4134 
L 603 4134 
L 603 4863 
z
" id="DejaVuSans-69" transform="scale(0.015625)"/>
      <path d="M 4122 4306 
L 4122 3641 
Q 3803 3938 3442 4084 
Q 3081 4231 2675 4231 
Q 1875 4231 1450 3742 
Q 1025 3253 1025 2328 
Q 1025 1406 1450 917 
Q 1875 428 2675 428 
Q 3081 428 3442 575 
Q 3803 722 4122 1019 
L 4122 359 
Q 3791 134 3420 21 
Q 3050 -91 2638 -91 
Q 1578 -91 968 557 
Q 359 1206 359 2328 
Q 359 3453 968 4101 
Q 1578 4750 2638 4750 
Q 3056 4750 3426 4639 
Q 3797 4528 4122 4306 
z
" id="DejaVuSans-43" transform="scale(0.015625)"/>
      <path d="M 628 4666 
L 3578 4666 
L 3578 4134 
L 1259 4134 
L 1259 2753 
L 3481 2753 
L 3481 2222 
L 1259 2222 
L 1259 531 
L 3634 531 
L 3634 0 
L 628 0 
L 628 4666 
z
" id="DejaVuSans-45" transform="scale(0.015625)"/>
     </defs>
     <use xlink:href="#DejaVuSans-4e"/>
     <use x="74.804688" xlink:href="#DejaVuSans-75"/>
     <use x="138.183594" xlink:href="#DejaVuSans-6d"/>
     <use x="235.595703" xlink:href="#DejaVuSans-62"/>
     <use x="299.072266" xlink:href="#DejaVuSans-65"/>
     <use x="360.595703" xlink:href="#DejaVuSans-72"/>
     <use x="401.708984" xlink:href="#DejaVuSans-20"/>
     <use x="433.496094" xlink:href="#DejaVuSans-6f"/>
     <use x="494.677734" xlink:href="#DejaVuSans-66"/>
     <use x="529.882812" xlink:href="#DejaVuSans-20"/>
     <use x="561.669922" xlink:href="#DejaVuSans-52"/>
     <use x="626.652344" xlink:href="#DejaVuSans-75"/>
     <use x="690.03125" xlink:href="#DejaVuSans-6c"/>
     <use x="717.814453" xlink:href="#DejaVuSans-65"/>
     <use x="779.337891" xlink:href="#DejaVuSans-73"/>
     <use x="831.4375" xlink:href="#DejaVuSans-20"/>
     <use x="863.224609" xlink:href="#DejaVuSans-6f"/>
     <use x="924.40625" xlink:href="#DejaVuSans-76"/>
     <use x="983.585938" xlink:href="#DejaVuSans-65"/>
     <use x="1045.109375" xlink:href="#DejaVuSans-72"/>
     <use x="1086.222656" xlink:href="#DejaVuSans-20"/>
     <use x="1118.009766" xlink:href="#DejaVuSans-74"/>
     <use x="1157.21875" xlink:href="#DejaVuSans-69"/>
     <use x="1185.001953" xlink:href="#DejaVuSans-6d"/>
     <use x="1282.414062" xlink:href="#DejaVuSans-65"/>
     <use x="1343.9375" xlink:href="#DejaVuSans-3a"/>
     <use x="1377.628906" xlink:href="#DejaVuSans-20"/>
     <use x="1409.416016" xlink:href="#DejaVuSans-52"/>
     <use x="1473.898438" xlink:href="#DejaVuSans-43"/>
     <use x="1543.722656" xlink:href="#DejaVuSans-45"/>
    </g>
   </g>
   <g id="legend_1">
    <g id="patch_7">
     <path d="M 57.925 78.834375 
L 161.51875 78.834375 
Q 163.51875 78.834375 163.51875 76.834375 
L 163.51875 33.8 
Q 163.51875 31.8 161.51875 31.8 
L 57.925 31.8 
Q 55.925 31.8 55.925 33.8 
L 55.925 76.834375 
Q 55.925 78.834375 57.925 78.834375 
z
" style="fill:#ffffff;opacity:0.8;stroke:#cccccc;stroke-linejoin:miter;"/>
    </g>
    <g id="line2d_55">
     <path d="M 59.925 39.898437 
L 79.925 39.898437 
" style="fill:none;stroke:#1f77b4;stroke-linecap:square;stroke-width:1.5;"/>
    </g>
    <g id="line2d_56"/>
    <g id="text_15">
     <!-- Not supported -->
     <g transform="translate(87.925 43.398437)scale(0.1 -0.1)">
      <defs>
       <path d="M 1159 525 
L 1159 -1331 
L 581 -1331 
L 581 3500 
L 1159 3500 
L 1159 2969 
Q 1341 3281 1617 3432 
Q 1894 3584 2278 3584 
Q 2916 3584 3314 3078 
Q 3713 2572 3713 1747 
Q 3713 922 3314 415 
Q 2916 -91 2278 -91 
Q 1894 -91 1617 61 
Q 1341 213 1159 525 
z
M 3116 1747 
Q 3116 2381 2855 2742 
Q 2594 3103 2138 3103 
Q 1681 3103 1420 2742 
Q 1159 2381 1159 1747 
Q 1159 1113 1420 752 
Q 1681 391 2138 391 
Q 2594 391 2855 752 
Q 3116 1113 3116 1747 
z
" id="DejaVuSans-70" transform="scale(0.015625)"/>
       <path d="M 2906 2969 
L 2906 4863 
L 3481 4863 
L 3481 0 
L 2906 0 
L 2906 525 
Q 2725 213 2448 61 
Q 2172 -91 1784 -91 
Q 1150 -91 751 415 
Q 353 922 353 1747 
Q 353 2572 751 3078 
Q 1150 3584 1784 3584 
Q 2172 3584 2448 3432 
Q 2725 3281 2906 2969 
z
M 947 1747 
Q 947 1113 1208 752 
Q 1469 391 1925 391 
Q 2381 391 2643 752 
Q 2906 1113 2906 1747 
Q 2906 2381 2643 2742 
Q 2381 3103 1925 3103 
Q 1469 3103 1208 2742 
Q 947 2381 947 1747 
z
" id="DejaVuSans-64" transform="scale(0.015625)"/>
      </defs>
      <use xlink:href="#DejaVuSans-4e"/>
      <use x="74.804688" xlink:href="#DejaVuSans-6f"/>
      <use x="135.986328" xlink:href="#DejaVuSans-74"/>
      <use x="175.195312" xlink:href="#DejaVuSans-20"/>
      <use x="206.982422" xlink:href="#DejaVuSans-73"/>
      <use x="259.082031" xlink:href="#DejaVuSans-75"/>
      <use x="322.460938" xlink:href="#DejaVuSans-70"/>
      <use x="385.9375" xlink:href="#DejaVuSans-70"/>
      <use x="449.414062" xlink:href="#DejaVuSans-6f"/>
      <use x="510.595703" xlink:href="#DejaVuSans-72"/>
      <use x="551.708984" xlink:href="#DejaVuSans-74"/>
      <use x="590.917969" xlink:href="#DejaVuSans-65"/>
      <use x="652.441406" xlink:href="#DejaVuSans-64"/>
     </g>
    </g>
    <g id="line2d_57">
     <path d="M 59.925 54.576562 
L 79.925 54.576562 
" style="fill:none;stroke:#ff7f0e;stroke-linecap:square;stroke-width:1.5;"/>
    </g>
    <g id="line2d_58"/>
    <g id="text_16">
     <!-- Not confident -->
     <g transform="translate(87.925 58.076562)scale(0.1 -0.1)">
      <defs>
       <path d="M 3122 3366 
L 3122 2828 
Q 2878 2963 2633 3030 
Q 2388 3097 2138 3097 
Q 1578 3097 1268 2742 
Q 959 2388 959 1747 
Q 959 1106 1268 751 
Q 1578 397 2138 397 
Q 2388 397 2633 464 
Q 2878 531 3122 666 
L 3122 134 
Q 2881 22 2623 -34 
Q 2366 -91 2075 -91 
Q 1284 -91 818 406 
Q 353 903 353 1747 
Q 353 2603 823 3093 
Q 1294 3584 2113 3584 
Q 2378 3584 2631 3529 
Q 2884 3475 3122 3366 
z
" id="DejaVuSans-63" transform="scale(0.015625)"/>
       <path d="M 3513 2113 
L 3513 0 
L 2938 0 
L 2938 2094 
Q 2938 2591 2744 2837 
Q 2550 3084 2163 3084 
Q 1697 3084 1428 2787 
Q 1159 2491 1159 1978 
L 1159 0 
L 581 0 
L 581 3500 
L 1159 3500 
L 1159 2956 
Q 1366 3272 1645 3428 
Q 1925 3584 2291 3584 
Q 2894 3584 3203 3211 
Q 3513 2838 3513 2113 
z
" id="DejaVuSans-6e" transform="scale(0.015625)"/>
      </defs>
      <use xlink:href="#DejaVuSans-4e"/>
      <use x="74.804688" xlink:href="#DejaVuSans-6f"/>
      <use x="135.986328" xlink:href="#DejaVuSans-74"/>
      <use x="175.195312" xlink:href="#DejaVuSans-20"/>
      <use x="206.982422" xlink:href="#DejaVuSans-63"/>
      <use x="261.962891" xlink:href="#DejaVuSans-6f"/>
      <use x="323.144531" xlink:href="#DejaVuSans-6e"/>
      <use x="386.523438" xlink:href="#DejaVuSans-66"/>
      <use x="421.728516" xlink:href="#DejaVuSans-69"/>
      <use x="449.511719" xlink:href="#DejaVuSans-64"/>
      <use x="512.988281" xlink:href="#DejaVuSans-65"/>
      <use x="574.511719" xlink:href="#DejaVuSans-6e"/>
      <use x="637.890625" xlink:href="#DejaVuSans-74"/>
     </g>
    </g>
    <g id="line2d_59">
     <path d="M 59.925 69.254687 
L 79.925 69.254687 
" style="fill:none;stroke:#2ca02c;stroke-linecap:square;stroke-width:1.5;"/>
    </g>
    <g id="line2d_60"/>
    <g id="text_17">
     <!-- confident -->
     <g transform="translate(87.925 72.754687)scale(0.1 -0.1)">
      <use xlink:href="#DejaVuSans-63"/>
      <use x="54.980469" xlink:href="#DejaVuSans-6f"/>
      <use x="116.162109" xlink:href="#DejaVuSans-6e"/>
      <use x="179.541016" xlink:href="#DejaVuSans-66"/>
      <use x="214.746094" xlink:href="#DejaVuSans-69"/>
      <use x="242.529297" xlink:href="#DejaVuSans-64"/>
      <use x="306.005859" xlink:href="#DejaVuSans-65"/>
      <use x="367.529297" xlink:href="#DejaVuSans-6e"/>
      <use x="430.908203" xlink:href="#DejaVuSans-74"/>
     </g>
    </g>
   </g>
  </g>
 </g>
 <defs>
  <clipPath id="p54b5d27139">
   <rect height="219.4" width="370.275" x="50.925" y="26.8"/>
  </clipPath>
 </defs>
</svg>
