<?xml version="1.0" encoding="utf-8" standalone="no"?>
<!DOCTYPE svg PUBLIC "-//W3C//DTD SVG 1.1//EN"
  "http://www.w3.org/Graphics/SVG/1.1/DTD/svg11.dtd">
<svg height="288pt" version="1.1" viewBox="0 0 504 288" width="504pt" xmlns="http://www.w3.org/2000/svg" xmlns:xlink="http://www.w3.org/1999/xlink">
 <metadata>
  <rdf:RDF xmlns:cc="http://creativecommons.org/ns#" xmlns:dc="http://purl.org/dc/elements/1.1/" xmlns:rdf="http://www.w3.org/1999/02/22-rdf-syntax-ns#">
   <cc:Work>
    <dc:type rdf:resource="http://purl.org/dc/dcmitype/StillImage"/>
    <dc:date>2023-11-24T16:52:15.999690</dc:date>
    <dc:format>image/svg+xml</dc:format>
    <dc:creator>
     <cc:Agent>
      <dc:title>Matplotlib v3.4.3, https://matplotlib.org/</dc:title>
     </cc:Agent>
    </dc:creator>
   </cc:Work>
  </rdf:RDF>
 </metadata>
 <defs>
  <style type="text/css">*{stroke-linecap:butt;stroke-linejoin:round;}</style>
 </defs>
 <g id="figure_1">
  <g id="patch_1">
   <path d="M 0 288 
L 504 288 
L 504 0 
L 0 0 
z
" style="fill:none;"/>
  </g>
  <g id="axes_1">
   <g id="patch_2">
    <path d="M 50.925 246.2 
L 493.2 246.2 
L 493.2 26.8 
L 50.925 26.8 
z
" style="fill:#ffffff;"/>
   </g>
   <g id="matplotlib.axis_1">
    <g id="xtick_1">
     <g id="line2d_1">
      <path clip-path="url(#pf7a98f4d9e)" d="M 71.028409 246.2 
L 71.028409 26.8 
" style="fill:none;stroke:#b0b0b0;stroke-linecap:square;stroke-width:0.8;"/>
     </g>
     <g id="line2d_2">
      <defs>
       <path d="M 0 0 
L 0 3.5 
" id="m0e2a684814" style="stroke:#000000;stroke-width:0.8;"/>
      </defs>
      <g>
       <use style="stroke:#000000;stroke-width:0.8;" x="71.028409" xlink:href="#m0e2a684814" y="246.2"/>
      </g>
     </g>
     <g id="text_1">
      <!-- 00:00 -->
      <g transform="translate(56.619034 260.798437)scale(0.1 -0.1)">
       <defs>
        <path d="M 2034 4250 
Q 1547 4250 1301 3770 
Q 1056 3291 1056 2328 
Q 1056 1369 1301 889 
Q 1547 409 2034 409 
Q 2525 409 2770 889 
Q 3016 1369 3016 2328 
Q 3016 3291 2770 3770 
Q 2525 4250 2034 4250 
z
M 2034 4750 
Q 2819 4750 3233 4129 
Q 3647 3509 3647 2328 
Q 3647 1150 3233 529 
Q 2819 -91 2034 -91 
Q 1250 -91 836 529 
Q 422 1150 422 2328 
Q 422 3509 836 4129 
Q 1250 4750 2034 4750 
z
" id="DejaVuSans-30" transform="scale(0.015625)"/>
        <path d="M 750 794 
L 1409 794 
L 1409 0 
L 750 0 
L 750 794 
z
M 750 3309 
L 1409 3309 
L 1409 2516 
L 750 2516 
L 750 3309 
z
" id="DejaVuSans-3a" transform="scale(0.015625)"/>
       </defs>
       <use xlink:href="#DejaVuSans-30"/>
       <use x="63.623047" xlink:href="#DejaVuSans-30"/>
       <use x="127.246094" xlink:href="#DejaVuSans-3a"/>
       <use x="160.9375" xlink:href="#DejaVuSans-30"/>
       <use x="224.560547" xlink:href="#DejaVuSans-30"/>
      </g>
     </g>
    </g>
    <g id="xtick_2">
     <g id="line2d_3">
      <path clip-path="url(#pf7a98f4d9e)" d="M 148.487829 246.2 
L 148.487829 26.8 
" style="fill:none;stroke:#b0b0b0;stroke-linecap:square;stroke-width:0.8;"/>
     </g>
     <g id="line2d_4">
      <g>
       <use style="stroke:#000000;stroke-width:0.8;" x="148.487829" xlink:href="#m0e2a684814" y="246.2"/>
      </g>
     </g>
     <g id="text_2">
      <!-- 02:00 -->
      <g transform="translate(134.078454 260.798437)scale(0.1 -0.1)">
       <defs>
        <path d="M 1228 531 
L 3431 531 
L 3431 0 
L 469 0 
L 469 531 
Q 828 903 1448 1529 
Q 2069 2156 2228 2338 
Q 2531 2678 2651 2914 
Q 2772 3150 2772 3378 
Q 2772 3750 2511 3984 
Q 2250 4219 1831 4219 
Q 1534 4219 1204 4116 
Q 875 4013 500 3803 
L 500 4441 
Q 881 4594 1212 4672 
Q 1544 4750 1819 4750 
Q 2544 4750 2975 4387 
Q 3406 4025 3406 3419 
Q 3406 3131 3298 2873 
Q 3191 2616 2906 2266 
Q 2828 2175 2409 1742 
Q 1991 1309 1228 531 
z
" id="DejaVuSans-32" transform="scale(0.015625)"/>
       </defs>
       <use xlink:href="#DejaVuSans-30"/>
       <use x="63.623047" xlink:href="#DejaVuSans-32"/>
       <use x="127.246094" xlink:href="#DejaVuSans-3a"/>
       <use x="160.9375" xlink:href="#DejaVuSans-30"/>
       <use x="224.560547" xlink:href="#DejaVuSans-30"/>
      </g>
     </g>
    </g>
    <g id="xtick_3">
     <g id="line2d_5">
      <path clip-path="url(#pf7a98f4d9e)" d="M 225.947249 246.2 
L 225.947249 26.8 
" style="fill:none;stroke:#b0b0b0;stroke-linecap:square;stroke-width:0.8;"/>
     </g>
     <g id="line2d_6">
      <g>
       <use style="stroke:#000000;stroke-width:0.8;" x="225.947249" xlink:href="#m0e2a684814" y="246.2"/>
      </g>
     </g>
     <g id="text_3">
      <!-- 04:00 -->
      <g transform="translate(211.537874 260.798437)scale(0.1 -0.1)">
       <defs>
        <path d="M 2419 4116 
L 825 1625 
L 2419 1625 
L 2419 4116 
z
M 2253 4666 
L 3047 4666 
L 3047 1625 
L 3713 1625 
L 3713 1100 
L 3047 1100 
L 3047 0 
L 2419 0 
L 2419 1100 
L 313 1100 
L 313 1709 
L 2253 4666 
z
" id="DejaVuSans-34" transform="scale(0.015625)"/>
       </defs>
       <use xlink:href="#DejaVuSans-30"/>
       <use x="63.623047" xlink:href="#DejaVuSans-34"/>
       <use x="127.246094" xlink:href="#DejaVuSans-3a"/>
       <use x="160.9375" xlink:href="#DejaVuSans-30"/>
       <use x="224.560547" xlink:href="#DejaVuSans-30"/>
      </g>
     </g>
    </g>
    <g id="xtick_4">
     <g id="line2d_7">
      <path clip-path="url(#pf7a98f4d9e)" d="M 303.40667 246.2 
L 303.40667 26.8 
" style="fill:none;stroke:#b0b0b0;stroke-linecap:square;stroke-width:0.8;"/>
     </g>
     <g id="line2d_8">
      <g>
       <use style="stroke:#000000;stroke-width:0.8;" x="303.40667" xlink:href="#m0e2a684814" y="246.2"/>
      </g>
     </g>
     <g id="text_4">
      <!-- 06:00 -->
      <g transform="translate(288.997295 260.798437)scale(0.1 -0.1)">
       <defs>
        <path d="M 2113 2584 
Q 1688 2584 1439 2293 
Q 1191 2003 1191 1497 
Q 1191 994 1439 701 
Q 1688 409 2113 409 
Q 2538 409 2786 701 
Q 3034 994 3034 1497 
Q 3034 2003 2786 2293 
Q 2538 2584 2113 2584 
z
M 3366 4563 
L 3366 3988 
Q 3128 4100 2886 4159 
Q 2644 4219 2406 4219 
Q 1781 4219 1451 3797 
Q 1122 3375 1075 2522 
Q 1259 2794 1537 2939 
Q 1816 3084 2150 3084 
Q 2853 3084 3261 2657 
Q 3669 2231 3669 1497 
Q 3669 778 3244 343 
Q 2819 -91 2113 -91 
Q 1303 -91 875 529 
Q 447 1150 447 2328 
Q 447 3434 972 4092 
Q 1497 4750 2381 4750 
Q 2619 4750 2861 4703 
Q 3103 4656 3366 4563 
z
" id="DejaVuSans-36" transform="scale(0.015625)"/>
       </defs>
       <use xlink:href="#DejaVuSans-30"/>
       <use x="63.623047" xlink:href="#DejaVuSans-36"/>
       <use x="127.246094" xlink:href="#DejaVuSans-3a"/>
       <use x="160.9375" xlink:href="#DejaVuSans-30"/>
       <use x="224.560547" xlink:href="#DejaVuSans-30"/>
      </g>
     </g>
    </g>
    <g id="xtick_5">
     <g id="line2d_9">
      <path clip-path="url(#pf7a98f4d9e)" d="M 380.86609 246.2 
L 380.86609 26.8 
" style="fill:none;stroke:#b0b0b0;stroke-linecap:square;stroke-width:0.8;"/>
     </g>
     <g id="line2d_10">
      <g>
       <use style="stroke:#000000;stroke-width:0.8;" x="380.86609" xlink:href="#m0e2a684814" y="246.2"/>
      </g>
     </g>
     <g id="text_5">
      <!-- 08:00 -->
      <g transform="translate(366.456715 260.798437)scale(0.1 -0.1)">
       <defs>
        <path d="M 2034 2216 
Q 1584 2216 1326 1975 
Q 1069 1734 1069 1313 
Q 1069 891 1326 650 
Q 1584 409 2034 409 
Q 2484 409 2743 651 
Q 3003 894 3003 1313 
Q 3003 1734 2745 1975 
Q 2488 2216 2034 2216 
z
M 1403 2484 
Q 997 2584 770 2862 
Q 544 3141 544 3541 
Q 544 4100 942 4425 
Q 1341 4750 2034 4750 
Q 2731 4750 3128 4425 
Q 3525 4100 3525 3541 
Q 3525 3141 3298 2862 
Q 3072 2584 2669 2484 
Q 3125 2378 3379 2068 
Q 3634 1759 3634 1313 
Q 3634 634 3220 271 
Q 2806 -91 2034 -91 
Q 1263 -91 848 271 
Q 434 634 434 1313 
Q 434 1759 690 2068 
Q 947 2378 1403 2484 
z
M 1172 3481 
Q 1172 3119 1398 2916 
Q 1625 2713 2034 2713 
Q 2441 2713 2670 2916 
Q 2900 3119 2900 3481 
Q 2900 3844 2670 4047 
Q 2441 4250 2034 4250 
Q 1625 4250 1398 4047 
Q 1172 3844 1172 3481 
z
" id="DejaVuSans-38" transform="scale(0.015625)"/>
       </defs>
       <use xlink:href="#DejaVuSans-30"/>
       <use x="63.623047" xlink:href="#DejaVuSans-38"/>
       <use x="127.246094" xlink:href="#DejaVuSans-3a"/>
       <use x="160.9375" xlink:href="#DejaVuSans-30"/>
       <use x="224.560547" xlink:href="#DejaVuSans-30"/>
      </g>
     </g>
    </g>
    <g id="xtick_6">
     <g id="line2d_11">
      <path clip-path="url(#pf7a98f4d9e)" d="M 458.32551 246.2 
L 458.32551 26.8 
" style="fill:none;stroke:#b0b0b0;stroke-linecap:square;stroke-width:0.8;"/>
     </g>
     <g id="line2d_12">
      <g>
       <use style="stroke:#000000;stroke-width:0.8;" x="458.32551" xlink:href="#m0e2a684814" y="246.2"/>
      </g>
     </g>
     <g id="text_6">
      <!-- 10:00 -->
      <g transform="translate(443.916135 260.798437)scale(0.1 -0.1)">
       <defs>
        <path d="M 794 531 
L 1825 531 
L 1825 4091 
L 703 3866 
L 703 4441 
L 1819 4666 
L 2450 4666 
L 2450 531 
L 3481 531 
L 3481 0 
L 794 0 
L 794 531 
z
" id="DejaVuSans-31" transform="scale(0.015625)"/>
       </defs>
       <use xlink:href="#DejaVuSans-31"/>
       <use x="63.623047" xlink:href="#DejaVuSans-30"/>
       <use x="127.246094" xlink:href="#DejaVuSans-3a"/>
       <use x="160.9375" xlink:href="#DejaVuSans-30"/>
       <use x="224.560547" xlink:href="#DejaVuSans-30"/>
      </g>
     </g>
    </g>
    <g id="xtick_7">
     <g id="line2d_13">
      <defs>
       <path d="M 0 0 
L 0 2 
" id="mb076ce703a" style="stroke:#000000;stroke-width:0.6;"/>
      </defs>
      <g>
       <use style="stroke:#000000;stroke-width:0.6;" x="58.118506" xlink:href="#mb076ce703a" y="246.2"/>
      </g>
     </g>
    </g>
    <g id="xtick_8">
     <g id="line2d_14">
      <g>
       <use style="stroke:#000000;stroke-width:0.6;" x="83.938312" xlink:href="#mb076ce703a" y="246.2"/>
      </g>
     </g>
    </g>
    <g id="xtick_9">
     <g id="line2d_15">
      <g>
       <use style="stroke:#000000;stroke-width:0.6;" x="96.848216" xlink:href="#mb076ce703a" y="246.2"/>
      </g>
     </g>
    </g>
    <g id="xtick_10">
     <g id="line2d_16">
      <g>
       <use style="stroke:#000000;stroke-width:0.6;" x="109.758119" xlink:href="#mb076ce703a" y="246.2"/>
      </g>
     </g>
    </g>
    <g id="xtick_11">
     <g id="line2d_17">
      <g>
       <use style="stroke:#000000;stroke-width:0.6;" x="122.668023" xlink:href="#mb076ce703a" y="246.2"/>
      </g>
     </g>
    </g>
    <g id="xtick_12">
     <g id="line2d_18">
      <g>
       <use style="stroke:#000000;stroke-width:0.6;" x="135.577926" xlink:href="#mb076ce703a" y="246.2"/>
      </g>
     </g>
    </g>
    <g id="xtick_13">
     <g id="line2d_19">
      <g>
       <use style="stroke:#000000;stroke-width:0.6;" x="161.397733" xlink:href="#mb076ce703a" y="246.2"/>
      </g>
     </g>
    </g>
    <g id="xtick_14">
     <g id="line2d_20">
      <g>
       <use style="stroke:#000000;stroke-width:0.6;" x="174.307636" xlink:href="#mb076ce703a" y="246.2"/>
      </g>
     </g>
    </g>
    <g id="xtick_15">
     <g id="line2d_21">
      <g>
       <use style="stroke:#000000;stroke-width:0.6;" x="187.217539" xlink:href="#mb076ce703a" y="246.2"/>
      </g>
     </g>
    </g>
    <g id="xtick_16">
     <g id="line2d_22">
      <g>
       <use style="stroke:#000000;stroke-width:0.6;" x="200.127443" xlink:href="#mb076ce703a" y="246.2"/>
      </g>
     </g>
    </g>
    <g id="xtick_17">
     <g id="line2d_23">
      <g>
       <use style="stroke:#000000;stroke-width:0.6;" x="213.037346" xlink:href="#mb076ce703a" y="246.2"/>
      </g>
     </g>
    </g>
    <g id="xtick_18">
     <g id="line2d_24">
      <g>
       <use style="stroke:#000000;stroke-width:0.6;" x="238.857153" xlink:href="#mb076ce703a" y="246.2"/>
      </g>
     </g>
    </g>
    <g id="xtick_19">
     <g id="line2d_25">
      <g>
       <use style="stroke:#000000;stroke-width:0.6;" x="251.767056" xlink:href="#mb076ce703a" y="246.2"/>
      </g>
     </g>
    </g>
    <g id="xtick_20">
     <g id="line2d_26">
      <g>
       <use style="stroke:#000000;stroke-width:0.6;" x="264.676959" xlink:href="#mb076ce703a" y="246.2"/>
      </g>
     </g>
    </g>
    <g id="xtick_21">
     <g id="line2d_27">
      <g>
       <use style="stroke:#000000;stroke-width:0.6;" x="277.586863" xlink:href="#mb076ce703a" y="246.2"/>
      </g>
     </g>
    </g>
    <g id="xtick_22">
     <g id="line2d_28">
      <g>
       <use style="stroke:#000000;stroke-width:0.6;" x="290.496766" xlink:href="#mb076ce703a" y="246.2"/>
      </g>
     </g>
    </g>
    <g id="xtick_23">
     <g id="line2d_29">
      <g>
       <use style="stroke:#000000;stroke-width:0.6;" x="316.316573" xlink:href="#mb076ce703a" y="246.2"/>
      </g>
     </g>
    </g>
    <g id="xtick_24">
     <g id="line2d_30">
      <g>
       <use style="stroke:#000000;stroke-width:0.6;" x="329.226476" xlink:href="#mb076ce703a" y="246.2"/>
      </g>
     </g>
    </g>
    <g id="xtick_25">
     <g id="line2d_31">
      <g>
       <use style="stroke:#000000;stroke-width:0.6;" x="342.13638" xlink:href="#mb076ce703a" y="246.2"/>
      </g>
     </g>
    </g>
    <g id="xtick_26">
     <g id="line2d_32">
      <g>
       <use style="stroke:#000000;stroke-width:0.6;" x="355.046283" xlink:href="#mb076ce703a" y="246.2"/>
      </g>
     </g>
    </g>
    <g id="xtick_27">
     <g id="line2d_33">
      <g>
       <use style="stroke:#000000;stroke-width:0.6;" x="367.956186" xlink:href="#mb076ce703a" y="246.2"/>
      </g>
     </g>
    </g>
    <g id="xtick_28">
     <g id="line2d_34">
      <g>
       <use style="stroke:#000000;stroke-width:0.6;" x="393.775993" xlink:href="#mb076ce703a" y="246.2"/>
      </g>
     </g>
    </g>
    <g id="xtick_29">
     <g id="line2d_35">
      <g>
       <use style="stroke:#000000;stroke-width:0.6;" x="406.685896" xlink:href="#mb076ce703a" y="246.2"/>
      </g>
     </g>
    </g>
    <g id="xtick_30">
     <g id="line2d_36">
      <g>
       <use style="stroke:#000000;stroke-width:0.6;" x="419.5958" xlink:href="#mb076ce703a" y="246.2"/>
      </g>
     </g>
    </g>
    <g id="xtick_31">
     <g id="line2d_37">
      <g>
       <use style="stroke:#000000;stroke-width:0.6;" x="432.505703" xlink:href="#mb076ce703a" y="246.2"/>
      </g>
     </g>
    </g>
    <g id="xtick_32">
     <g id="line2d_38">
      <g>
       <use style="stroke:#000000;stroke-width:0.6;" x="445.415606" xlink:href="#mb076ce703a" y="246.2"/>
      </g>
     </g>
    </g>
    <g id="xtick_33">
     <g id="line2d_39">
      <g>
       <use style="stroke:#000000;stroke-width:0.6;" x="471.235413" xlink:href="#mb076ce703a" y="246.2"/>
      </g>
     </g>
    </g>
    <g id="xtick_34">
     <g id="line2d_40">
      <g>
       <use style="stroke:#000000;stroke-width:0.6;" x="484.145317" xlink:href="#mb076ce703a" y="246.2"/>
      </g>
     </g>
    </g>
    <g id="text_7">
     <!-- Hours [h] -->
     <g transform="translate(248.754687 274.476562)scale(0.1 -0.1)">
      <defs>
       <path d="M 628 4666 
L 1259 4666 
L 1259 2753 
L 3553 2753 
L 3553 4666 
L 4184 4666 
L 4184 0 
L 3553 0 
L 3553 2222 
L 1259 2222 
L 1259 0 
L 628 0 
L 628 4666 
z
" id="DejaVuSans-48" transform="scale(0.015625)"/>
       <path d="M 1959 3097 
Q 1497 3097 1228 2736 
Q 959 2375 959 1747 
Q 959 1119 1226 758 
Q 1494 397 1959 397 
Q 2419 397 2687 759 
Q 2956 1122 2956 1747 
Q 2956 2369 2687 2733 
Q 2419 3097 1959 3097 
z
M 1959 3584 
Q 2709 3584 3137 3096 
Q 3566 2609 3566 1747 
Q 3566 888 3137 398 
Q 2709 -91 1959 -91 
Q 1206 -91 779 398 
Q 353 888 353 1747 
Q 353 2609 779 3096 
Q 1206 3584 1959 3584 
z
" id="DejaVuSans-6f" transform="scale(0.015625)"/>
       <path d="M 544 1381 
L 544 3500 
L 1119 3500 
L 1119 1403 
Q 1119 906 1312 657 
Q 1506 409 1894 409 
Q 2359 409 2629 706 
Q 2900 1003 2900 1516 
L 2900 3500 
L 3475 3500 
L 3475 0 
L 2900 0 
L 2900 538 
Q 2691 219 2414 64 
Q 2138 -91 1772 -91 
Q 1169 -91 856 284 
Q 544 659 544 1381 
z
M 1991 3584 
L 1991 3584 
z
" id="DejaVuSans-75" transform="scale(0.015625)"/>
       <path d="M 2631 2963 
Q 2534 3019 2420 3045 
Q 2306 3072 2169 3072 
Q 1681 3072 1420 2755 
Q 1159 2438 1159 1844 
L 1159 0 
L 581 0 
L 581 3500 
L 1159 3500 
L 1159 2956 
Q 1341 3275 1631 3429 
Q 1922 3584 2338 3584 
Q 2397 3584 2469 3576 
Q 2541 3569 2628 3553 
L 2631 2963 
z
" id="DejaVuSans-72" transform="scale(0.015625)"/>
       <path d="M 2834 3397 
L 2834 2853 
Q 2591 2978 2328 3040 
Q 2066 3103 1784 3103 
Q 1356 3103 1142 2972 
Q 928 2841 928 2578 
Q 928 2378 1081 2264 
Q 1234 2150 1697 2047 
L 1894 2003 
Q 2506 1872 2764 1633 
Q 3022 1394 3022 966 
Q 3022 478 2636 193 
Q 2250 -91 1575 -91 
Q 1294 -91 989 -36 
Q 684 19 347 128 
L 347 722 
Q 666 556 975 473 
Q 1284 391 1588 391 
Q 1994 391 2212 530 
Q 2431 669 2431 922 
Q 2431 1156 2273 1281 
Q 2116 1406 1581 1522 
L 1381 1569 
Q 847 1681 609 1914 
Q 372 2147 372 2553 
Q 372 3047 722 3315 
Q 1072 3584 1716 3584 
Q 2034 3584 2315 3537 
Q 2597 3491 2834 3397 
z
" id="DejaVuSans-73" transform="scale(0.015625)"/>
       <path id="DejaVuSans-20" transform="scale(0.015625)"/>
       <path d="M 550 4863 
L 1875 4863 
L 1875 4416 
L 1125 4416 
L 1125 -397 
L 1875 -397 
L 1875 -844 
L 550 -844 
L 550 4863 
z
" id="DejaVuSans-5b" transform="scale(0.015625)"/>
       <path d="M 3513 2113 
L 3513 0 
L 2938 0 
L 2938 2094 
Q 2938 2591 2744 2837 
Q 2550 3084 2163 3084 
Q 1697 3084 1428 2787 
Q 1159 2491 1159 1978 
L 1159 0 
L 581 0 
L 581 4863 
L 1159 4863 
L 1159 2956 
Q 1366 3272 1645 3428 
Q 1925 3584 2291 3584 
Q 2894 3584 3203 3211 
Q 3513 2838 3513 2113 
z
" id="DejaVuSans-68" transform="scale(0.015625)"/>
       <path d="M 1947 4863 
L 1947 -844 
L 622 -844 
L 622 -397 
L 1369 -397 
L 1369 4416 
L 622 4416 
L 622 4863 
L 1947 4863 
z
" id="DejaVuSans-5d" transform="scale(0.015625)"/>
      </defs>
      <use xlink:href="#DejaVuSans-48"/>
      <use x="75.195312" xlink:href="#DejaVuSans-6f"/>
      <use x="136.376953" xlink:href="#DejaVuSans-75"/>
      <use x="199.755859" xlink:href="#DejaVuSans-72"/>
      <use x="240.869141" xlink:href="#DejaVuSans-73"/>
      <use x="292.96875" xlink:href="#DejaVuSans-20"/>
      <use x="324.755859" xlink:href="#DejaVuSans-5b"/>
      <use x="363.769531" xlink:href="#DejaVuSans-68"/>
      <use x="427.148438" xlink:href="#DejaVuSans-5d"/>
     </g>
    </g>
   </g>
   <g id="matplotlib.axis_2">
    <g id="ytick_1">
     <g id="line2d_41">
      <path clip-path="url(#pf7a98f4d9e)" d="M 50.925 236.227273 
L 493.2 236.227273 
" style="fill:none;stroke:#b0b0b0;stroke-linecap:square;stroke-width:0.8;"/>
     </g>
     <g id="line2d_42">
      <defs>
       <path d="M 0 0 
L -3.5 0 
" id="mcd2d72277b" style="stroke:#000000;stroke-width:0.8;"/>
      </defs>
      <g>
       <use style="stroke:#000000;stroke-width:0.8;" x="50.925" xlink:href="#mcd2d72277b" y="236.227273"/>
      </g>
     </g>
     <g id="text_8">
      <!-- 0 -->
      <g transform="translate(37.5625 240.026491)scale(0.1 -0.1)">
       <use xlink:href="#DejaVuSans-30"/>
      </g>
     </g>
    </g>
    <g id="ytick_2">
     <g id="line2d_43">
      <path clip-path="url(#pf7a98f4d9e)" d="M 50.925 210.590442 
L 493.2 210.590442 
" style="fill:none;stroke:#b0b0b0;stroke-linecap:square;stroke-width:0.8;"/>
     </g>
     <g id="line2d_44">
      <g>
       <use style="stroke:#000000;stroke-width:0.8;" x="50.925" xlink:href="#mcd2d72277b" y="210.590442"/>
      </g>
     </g>
     <g id="text_9">
      <!-- 50 -->
      <g transform="translate(31.2 214.38966)scale(0.1 -0.1)">
       <defs>
        <path d="M 691 4666 
L 3169 4666 
L 3169 4134 
L 1269 4134 
L 1269 2991 
Q 1406 3038 1543 3061 
Q 1681 3084 1819 3084 
Q 2600 3084 3056 2656 
Q 3513 2228 3513 1497 
Q 3513 744 3044 326 
Q 2575 -91 1722 -91 
Q 1428 -91 1123 -41 
Q 819 9 494 109 
L 494 744 
Q 775 591 1075 516 
Q 1375 441 1709 441 
Q 2250 441 2565 725 
Q 2881 1009 2881 1497 
Q 2881 1984 2565 2268 
Q 2250 2553 1709 2553 
Q 1456 2553 1204 2497 
Q 953 2441 691 2322 
L 691 4666 
z
" id="DejaVuSans-35" transform="scale(0.015625)"/>
       </defs>
       <use xlink:href="#DejaVuSans-35"/>
       <use x="63.623047" xlink:href="#DejaVuSans-30"/>
      </g>
     </g>
    </g>
    <g id="ytick_3">
     <g id="line2d_45">
      <path clip-path="url(#pf7a98f4d9e)" d="M 50.925 184.953611 
L 493.2 184.953611 
" style="fill:none;stroke:#b0b0b0;stroke-linecap:square;stroke-width:0.8;"/>
     </g>
     <g id="line2d_46">
      <g>
       <use style="stroke:#000000;stroke-width:0.8;" x="50.925" xlink:href="#mcd2d72277b" y="184.953611"/>
      </g>
     </g>
     <g id="text_10">
      <!-- 100 -->
      <g transform="translate(24.8375 188.752829)scale(0.1 -0.1)">
       <use xlink:href="#DejaVuSans-31"/>
       <use x="63.623047" xlink:href="#DejaVuSans-30"/>
       <use x="127.246094" xlink:href="#DejaVuSans-30"/>
      </g>
     </g>
    </g>
    <g id="ytick_4">
     <g id="line2d_47">
      <path clip-path="url(#pf7a98f4d9e)" d="M 50.925 159.31678 
L 493.2 159.31678 
" style="fill:none;stroke:#b0b0b0;stroke-linecap:square;stroke-width:0.8;"/>
     </g>
     <g id="line2d_48">
      <g>
       <use style="stroke:#000000;stroke-width:0.8;" x="50.925" xlink:href="#mcd2d72277b" y="159.31678"/>
      </g>
     </g>
     <g id="text_11">
      <!-- 150 -->
      <g transform="translate(24.8375 163.115998)scale(0.1 -0.1)">
       <use xlink:href="#DejaVuSans-31"/>
       <use x="63.623047" xlink:href="#DejaVuSans-35"/>
       <use x="127.246094" xlink:href="#DejaVuSans-30"/>
      </g>
     </g>
    </g>
    <g id="ytick_5">
     <g id="line2d_49">
      <path clip-path="url(#pf7a98f4d9e)" d="M 50.925 133.679949 
L 493.2 133.679949 
" style="fill:none;stroke:#b0b0b0;stroke-linecap:square;stroke-width:0.8;"/>
     </g>
     <g id="line2d_50">
      <g>
       <use style="stroke:#000000;stroke-width:0.8;" x="50.925" xlink:href="#mcd2d72277b" y="133.679949"/>
      </g>
     </g>
     <g id="text_12">
      <!-- 200 -->
      <g transform="translate(24.8375 137.479167)scale(0.1 -0.1)">
       <use xlink:href="#DejaVuSans-32"/>
       <use x="63.623047" xlink:href="#DejaVuSans-30"/>
       <use x="127.246094" xlink:href="#DejaVuSans-30"/>
      </g>
     </g>
    </g>
    <g id="ytick_6">
     <g id="line2d_51">
      <path clip-path="url(#pf7a98f4d9e)" d="M 50.925 108.043118 
L 493.2 108.043118 
" style="fill:none;stroke:#b0b0b0;stroke-linecap:square;stroke-width:0.8;"/>
     </g>
     <g id="line2d_52">
      <g>
       <use style="stroke:#000000;stroke-width:0.8;" x="50.925" xlink:href="#mcd2d72277b" y="108.043118"/>
      </g>
     </g>
     <g id="text_13">
      <!-- 250 -->
      <g transform="translate(24.8375 111.842336)scale(0.1 -0.1)">
       <use xlink:href="#DejaVuSans-32"/>
       <use x="63.623047" xlink:href="#DejaVuSans-35"/>
       <use x="127.246094" xlink:href="#DejaVuSans-30"/>
      </g>
     </g>
    </g>
    <g id="ytick_7">
     <g id="line2d_53">
      <path clip-path="url(#pf7a98f4d9e)" d="M 50.925 82.406287 
L 493.2 82.406287 
" style="fill:none;stroke:#b0b0b0;stroke-linecap:square;stroke-width:0.8;"/>
     </g>
     <g id="line2d_54">
      <g>
       <use style="stroke:#000000;stroke-width:0.8;" x="50.925" xlink:href="#mcd2d72277b" y="82.406287"/>
      </g>
     </g>
     <g id="text_14">
      <!-- 300 -->
      <g transform="translate(24.8375 86.205505)scale(0.1 -0.1)">
       <defs>
        <path d="M 2597 2516 
Q 3050 2419 3304 2112 
Q 3559 1806 3559 1356 
Q 3559 666 3084 287 
Q 2609 -91 1734 -91 
Q 1441 -91 1130 -33 
Q 819 25 488 141 
L 488 750 
Q 750 597 1062 519 
Q 1375 441 1716 441 
Q 2309 441 2620 675 
Q 2931 909 2931 1356 
Q 2931 1769 2642 2001 
Q 2353 2234 1838 2234 
L 1294 2234 
L 1294 2753 
L 1863 2753 
Q 2328 2753 2575 2939 
Q 2822 3125 2822 3475 
Q 2822 3834 2567 4026 
Q 2313 4219 1838 4219 
Q 1578 4219 1281 4162 
Q 984 4106 628 3988 
L 628 4550 
Q 988 4650 1302 4700 
Q 1616 4750 1894 4750 
Q 2613 4750 3031 4423 
Q 3450 4097 3450 3541 
Q 3450 3153 3228 2886 
Q 3006 2619 2597 2516 
z
" id="DejaVuSans-33" transform="scale(0.015625)"/>
       </defs>
       <use xlink:href="#DejaVuSans-33"/>
       <use x="63.623047" xlink:href="#DejaVuSans-30"/>
       <use x="127.246094" xlink:href="#DejaVuSans-30"/>
      </g>
     </g>
    </g>
    <g id="ytick_8">
     <g id="line2d_55">
      <path clip-path="url(#pf7a98f4d9e)" d="M 50.925 56.769455 
L 493.2 56.769455 
" style="fill:none;stroke:#b0b0b0;stroke-linecap:square;stroke-width:0.8;"/>
     </g>
     <g id="line2d_56">
      <g>
       <use style="stroke:#000000;stroke-width:0.8;" x="50.925" xlink:href="#mcd2d72277b" y="56.769455"/>
      </g>
     </g>
     <g id="text_15">
      <!-- 350 -->
      <g transform="translate(24.8375 60.568674)scale(0.1 -0.1)">
       <use xlink:href="#DejaVuSans-33"/>
       <use x="63.623047" xlink:href="#DejaVuSans-35"/>
       <use x="127.246094" xlink:href="#DejaVuSans-30"/>
      </g>
     </g>
    </g>
    <g id="ytick_9">
     <g id="line2d_57">
      <path clip-path="url(#pf7a98f4d9e)" d="M 50.925 31.132624 
L 493.2 31.132624 
" style="fill:none;stroke:#b0b0b0;stroke-linecap:square;stroke-width:0.8;"/>
     </g>
     <g id="line2d_58">
      <g>
       <use style="stroke:#000000;stroke-width:0.8;" x="50.925" xlink:href="#mcd2d72277b" y="31.132624"/>
      </g>
     </g>
     <g id="text_16">
      <!-- 400 -->
      <g transform="translate(24.8375 34.931843)scale(0.1 -0.1)">
       <use xlink:href="#DejaVuSans-34"/>
       <use x="63.623047" xlink:href="#DejaVuSans-30"/>
       <use x="127.246094" xlink:href="#DejaVuSans-30"/>
      </g>
     </g>
    </g>
    <g id="text_17">
     <!-- N° Rules -->
     <g transform="translate(18.757812 157.817969)rotate(-90)scale(0.1 -0.1)">
      <defs>
       <path d="M 628 4666 
L 1478 4666 
L 3547 763 
L 3547 4666 
L 4159 4666 
L 4159 0 
L 3309 0 
L 1241 3903 
L 1241 0 
L 628 0 
L 628 4666 
z
" id="DejaVuSans-4e" transform="scale(0.015625)"/>
       <path d="M 1600 4347 
Q 1350 4347 1178 4173 
Q 1006 4000 1006 3750 
Q 1006 3503 1178 3333 
Q 1350 3163 1600 3163 
Q 1850 3163 2022 3333 
Q 2194 3503 2194 3750 
Q 2194 3997 2020 4172 
Q 1847 4347 1600 4347 
z
M 1600 4750 
Q 1800 4750 1984 4673 
Q 2169 4597 2303 4453 
Q 2447 4313 2519 4134 
Q 2591 3956 2591 3750 
Q 2591 3338 2302 3052 
Q 2013 2766 1594 2766 
Q 1172 2766 890 3047 
Q 609 3328 609 3750 
Q 609 4169 896 4459 
Q 1184 4750 1600 4750 
z
" id="DejaVuSans-b0" transform="scale(0.015625)"/>
       <path d="M 2841 2188 
Q 3044 2119 3236 1894 
Q 3428 1669 3622 1275 
L 4263 0 
L 3584 0 
L 2988 1197 
Q 2756 1666 2539 1819 
Q 2322 1972 1947 1972 
L 1259 1972 
L 1259 0 
L 628 0 
L 628 4666 
L 2053 4666 
Q 2853 4666 3247 4331 
Q 3641 3997 3641 3322 
Q 3641 2881 3436 2590 
Q 3231 2300 2841 2188 
z
M 1259 4147 
L 1259 2491 
L 2053 2491 
Q 2509 2491 2742 2702 
Q 2975 2913 2975 3322 
Q 2975 3731 2742 3939 
Q 2509 4147 2053 4147 
L 1259 4147 
z
" id="DejaVuSans-52" transform="scale(0.015625)"/>
       <path d="M 603 4863 
L 1178 4863 
L 1178 0 
L 603 0 
L 603 4863 
z
" id="DejaVuSans-6c" transform="scale(0.015625)"/>
       <path d="M 3597 1894 
L 3597 1613 
L 953 1613 
Q 991 1019 1311 708 
Q 1631 397 2203 397 
Q 2534 397 2845 478 
Q 3156 559 3463 722 
L 3463 178 
Q 3153 47 2828 -22 
Q 2503 -91 2169 -91 
Q 1331 -91 842 396 
Q 353 884 353 1716 
Q 353 2575 817 3079 
Q 1281 3584 2069 3584 
Q 2775 3584 3186 3129 
Q 3597 2675 3597 1894 
z
M 3022 2063 
Q 3016 2534 2758 2815 
Q 2500 3097 2075 3097 
Q 1594 3097 1305 2825 
Q 1016 2553 972 2059 
L 3022 2063 
z
" id="DejaVuSans-65" transform="scale(0.015625)"/>
      </defs>
      <use xlink:href="#DejaVuSans-4e"/>
      <use x="74.804688" xlink:href="#DejaVuSans-b0"/>
      <use x="124.804688" xlink:href="#DejaVuSans-20"/>
      <use x="156.591797" xlink:href="#DejaVuSans-52"/>
      <use x="221.574219" xlink:href="#DejaVuSans-75"/>
      <use x="284.953125" xlink:href="#DejaVuSans-6c"/>
      <use x="312.736328" xlink:href="#DejaVuSans-65"/>
      <use x="374.259766" xlink:href="#DejaVuSans-73"/>
     </g>
    </g>
   </g>
   <g id="line2d_59">
    <path clip-path="url(#pf7a98f4d9e)" d="M 71.028409 235.714536 
L 71.587838 228.023487 
L 71.770729 226.998014 
L 71.781487 226.485277 
L 71.942861 225.97254 
L 72.168784 224.43433 
L 72.1903 224.43433 
L 72.330158 222.896121 
L 72.609872 220.845174 
L 72.803521 219.819701 
L 73.007928 217.768754 
L 73.050961 217.768754 
L 73.126268 216.230545 
L 73.330675 215.717808 
L 73.405983 214.692335 
L 74.008445 213.666861 
L 74.180577 212.128652 
L 74.449533 211.103178 
L 74.610907 211.103178 
L 74.643182 210.590442 
L 75.08427 209.052232 
L 75.191853 207.001285 
L 75.224128 206.488549 
L 75.632941 205.975812 
L 75.966447 205.975812 
L 76.041755 204.950339 
L 76.213887 204.437602 
L 76.396777 202.386656 
L 76.794833 201.873919 
L 76.93469 201.361183 
L 77.246679 201.361183 
L 77.763075 200.335709 
L 77.870658 199.822973 
L 78.279471 199.310236 
L 78.397812 198.797499 
L 78.849659 198.284763 
L 79.043307 196.233816 
L 79.183165 195.72108 
L 79.33378 195.72108 
L 79.387572 194.695606 
L 79.990034 193.157397 
L 80.0761 192.64466 
L 80.538705 192.131923 
L 81.076617 190.080977 
L 81.36709 188.542767 
L 81.593013 188.03003 
L 81.679079 187.517294 
L 81.894244 187.004557 
L 82.335333 187.004557 
L 83.056136 186.491821 
L 83.142202 185.979084 
L 83.464949 185.466347 
L 83.712389 184.440874 
L 84.045895 183.928137 
L 84.357884 183.928137 
L 84.992621 183.415401 
L 85.444468 182.389928 
L 85.681149 181.877191 
L 85.788732 181.364454 
L 86.358919 181.364454 
L 86.627876 180.851718 
L 87.208821 180.338981 
L 87.488536 178.800771 
L 87.639151 178.800771 
L 87.703701 177.775298 
L 88.284647 177.775298 
L 88.887109 177.262561 
L 89.252889 176.749825 
L 89.37123 175.724351 
L 90.629946 173.673405 
L 90.780561 173.160668 
L 91.178617 172.647932 
L 91.200133 172.135195 
L 92.405057 171.622459 
L 92.630981 171.109722 
L 93.706806 170.596985 
L 93.749839 170.084249 
L 94.05107 169.571512 
L 94.083345 169.058775 
L 94.449125 169.058775 
L 94.814906 168.546039 
L 94.879456 168.033302 
L 95.212961 167.520566 
L 95.438885 165.982356 
L 95.783149 165.469619 
L 96.01983 164.956882 
L 96.676084 164.444146 
L 97.074139 163.931409 
L 97.138689 163.418673 
L 98.010107 162.905936 
L 98.30058 162.393199 
L 98.418921 161.880463 
L 98.784701 161.880463 
L 98.860009 161.367726 
L 100.107966 161.367726 
L 102.205826 160.342253 
L 102.560848 159.829516 
L 102.776013 159.31678 
L 102.829804 158.804043 
L 103.41075 158.291306 
L 103.4753 157.265833 
L 103.819564 156.753097 
L 104.981455 156.753097 
L 105.895906 154.70215 
L 106.30472 154.189413 
L 108.391821 153.16394 
L 108.639261 153.16394 
L 110.597263 152.651204 
L 111.145934 152.138467 
L 113.211518 151.112994 
L 113.932321 150.600257 
L 115.48151 150.600257 
L 116.266862 150.08752 
L 117.493303 149.574784 
L 117.63316 148.549311 
L 119.505096 147.523837 
L 119.558887 147.011101 
L 119.946185 146.498364 
L 121.914945 145.985627 
L 122.711056 145.985627 
L 126.788433 144.960154 
L 126.831466 144.447418 
L 127.982599 143.934681 
L 129.079941 143.934681 
L 129.542546 143.421944 
L 129.607096 142.396471 
L 131.113251 141.883735 
L 131.263867 141.370998 
L 131.73723 140.858261 
L 131.973911 140.345525 
L 134.050254 139.832788 
L 135.029255 139.320051 
L 135.373519 138.294578 
L 135.868399 137.781842 
L 136.180388 137.781842 
L 136.287971 137.269105 
L 137.27773 136.243632 
L 137.901708 136.243632 
L 138.289006 135.730895 
L 140.924778 134.705422 
L 141.107668 134.192685 
L 141.419657 133.679949 
L 141.494965 133.167212 
L 141.731646 132.654475 
L 141.763921 132.141739 
L 142.398658 132.141739 
L 142.624581 131.629002 
L 143.818748 130.603529 
L 145.841299 130.090792 
L 145.916607 129.578056 
L 146.895608 129.578056 
L 147.982191 128.552582 
L 148.132807 128.039846 
L 148.78906 127.527109 
L 150.230666 127.527109 
L 150.962227 127.014373 
L 152.748097 126.501636 
L 153.96378 125.988899 
L 154.630792 125.476163 
L 155.771166 125.476163 
L 156.502728 124.963426 
L 159.32139 123.425216 
L 159.418214 122.91248 
L 159.99916 122.399743 
L 161.978678 121.887006 
L 162.355217 121.37427 
L 162.925404 120.861533 
L 163.968955 120.861533 
L 164.990989 120.348796 
L 165.066297 119.83606 
L 165.561176 119.323323 
L 167.024299 118.810587 
L 167.153398 118.29785 
L 169.703104 117.785113 
L 170.800446 117.785113 
L 171.295325 117.272377 
L 173.672899 116.75964 
L 175.889099 115.734167 
L 178.697003 115.22143 
L 179.837378 114.708694 
L 180.041785 114.195957 
L 181.278984 113.68322 
L 181.634006 113.170484 
L 182.257985 113.170484 
L 184.893757 112.657747 
L 188.19654 112.657747 
L 192.403017 112.145011 
L 193.844623 112.145011 
L 195.006514 111.632274 
L 195.415328 111.632274 
L 197.588495 111.119537 
L 199.083892 110.606801 
L 202.117719 110.606801 
L 206.905142 110.094064 
L 208.249924 109.581327 
L 211.714081 109.068591 
L 213.069621 108.555854 
L 215.587052 108.043118 
L 215.683876 107.530381 
L 215.942074 107.530381 
L 216.490745 107.017644 
L 216.684394 106.504908 
L 217.996901 105.992171 
L 218.706945 105.479434 
L 218.825286 104.966698 
L 220.223859 104.966698 
L 222.009729 104.453961 
L 223.741808 103.941225 
L 225.861183 103.941225 
L 231.767464 103.428488 
L 231.971871 102.915751 
L 233.316653 101.890278 
L 234.984182 101.377541 
L 236.210623 101.377541 
L 236.361238 100.864805 
L 236.920667 100.352068 
L 237.02825 99.839332 
L 238.093317 98.301122 
L 240.696814 97.275649 
L 242.170695 96.762912 
L 243.042113 96.250175 
L 244.515994 95.737439 
L 245.559544 95.224702 
L 249.249625 94.711965 
L 250.798813 94.711965 
L 252.530892 94.199229 
L 256.070357 92.661019 
L 258.533997 92.148282 
L 261.471 91.635546 
L 262.267111 91.122809 
L 265.806576 91.122809 
L 268.506897 90.610072 
L 273.154463 90.097336 
L 273.509485 89.071863 
L 274.510003 88.559126 
L 275.198531 88.046389 
L 277.393214 87.533653 
L 285.859959 87.020916 
L 286.128916 86.508179 
L 286.236498 85.995443 
L 288.463456 85.482706 
L 289.227292 85.482706 
L 289.603831 84.96997 
L 290.152502 84.457233 
L 293.864099 84.457233 
L 295.058265 83.944496 
L 295.101298 83.43176 
L 302.41691 82.919023 
L 302.48146 82.406287 
L 302.750416 81.89355 
L 304.439462 81.380813 
L 304.891308 80.868077 
L 305.095715 80.35534 
L 305.536804 79.842603 
L 306.515805 79.842603 
L 306.720211 78.81713 
L 307.118267 78.304394 
L 307.580872 78.304394 
L 307.602388 77.791657 
L 309.259159 77.27892 
L 309.571148 76.766184 
L 315.229989 76.766184 
L 316.596287 75.74071 
L 318.629597 75.227974 
L 321.31916 74.715237 
L 323.244888 74.715237 
L 323.298679 74.202501 
L 323.556877 73.689764 
L 324.396021 73.177027 
L 327.1071 72.664291 
L 329.420125 72.664291 
L 332.636842 72.151554 
L 337.133792 71.126081 
L 339.586674 71.126081 
L 340.856148 70.613344 
L 341.706049 70.613344 
L 342.706567 70.100608 
L 343.36282 69.587871 
L 343.459645 69.075134 
L 344.460162 68.562398 
L 349.3982 68.049661 
L 351.969423 68.049661 
L 352.862358 67.536925 
L 355.885427 67.024188 
L 356.348032 66.511451 
L 359.855222 65.998715 
L 361.96384 65.485978 
L 362.383411 64.973241 
L 362.534027 64.460505 
L 363.577577 63.947768 
L 364.212314 63.947768 
L 365.750744 63.435032 
L 369.064286 63.435032 
L 369.881914 62.922295 
L 372.904983 62.409558 
L 373.701093 62.409558 
L 374.185215 61.896822 
L 376.197008 61.384085 
L 377.380416 60.871348 
L 377.982878 60.358612 
L 378.76823 60.358612 
L 383.889159 59.845875 
L 387.848196 59.333139 
L 388.310801 58.820402 
L 389.042362 58.307665 
L 389.311318 58.307665 
L 393.130498 57.282192 
L 393.646894 56.769455 
L 394.496796 56.769455 
L 395.217599 56.256719 
L 397.907162 55.743982 
L 398.488108 55.231246 
L 403.350838 54.718509 
L 404.039366 54.205772 
L 406.244808 53.693036 
L 408.170535 52.667563 
L 408.482525 52.154826 
L 410.860098 51.642089 
L 411.946682 51.642089 
L 413.076299 51.129353 
L 413.711035 50.616616 
L 414.012267 50.103879 
L 416.906237 49.591143 
L 417.218226 49.078406 
L 421.101955 48.56567 
L 421.424703 48.052933 
L 423.608628 47.540196 
L 427.944204 47.02746 
L 428.116336 46.514723 
L 436.948862 46.001986 
L 440.079513 44.463777 
L 440.144063 43.95104 
L 441.467328 43.438303 
L 444.060067 43.438303 
L 445.706079 42.925567 
L 446.792663 42.41283 
L 449.923314 42.41283 
L 453.064724 41.900093 
L 454.613913 41.387357 
L 455.313199 40.361884 
L 455.463815 39.849147 
L 461.886491 38.823674 
L 462.499712 38.310937 
L 463.844494 38.310937 
L 467.577607 37.285464 
L 470.159588 37.285464 
L 473.096591 36.772727 
L 473.096591 36.772727 
" style="fill:none;stroke:#1f77b4;stroke-linecap:square;stroke-width:1.5;"/>
   </g>
   <g id="line2d_60">
    <path clip-path="url(#pf7a98f4d9e)" d="M 71.028409 236.227273 
L 71.060684 236.227273 
L 71.060684 235.714536 
L 71.14675 235.714536 
L 71.501772 235.714536 
L 71.587838 235.201799 
L 71.727696 235.201799 
L 71.727696 234.689063 
L 71.781487 234.689063 
L 72.147267 234.689063 
L 72.265608 233.66359 
L 72.911103 233.66359 
L 72.921862 232.638116 
L 73.007928 232.638116 
L 73.126268 232.12538 
L 73.2984 232.12538 
L 73.405983 230.58717 
L 73.868588 230.58717 
L 74.094511 230.074433 
L 74.417259 230.074433 
L 74.449533 229.561697 
L 74.643182 229.04896 
L 74.826072 229.04896 
L 74.836831 228.536223 
L 75.08427 228.536223 
L 75.08427 228.536223 
L 75.224128 228.023487 
L 76.93469 228.023487 
L 77.235921 227.51075 
L 77.246679 226.998014 
L 81.894244 226.998014 
L 82.184717 226.485277 
L 82.335333 225.97254 
L 87.133514 225.97254 
L 87.284129 225.459804 
L 87.488536 225.459804 
L 87.703701 224.947067 
L 88.284647 224.43433 
L 94.083345 224.43433 
L 94.449125 223.921594 
L 94.79339 223.921594 
L 94.879456 223.408857 
L 95.933764 223.408857 
L 96.01983 222.896121 
L 98.418921 222.896121 
L 98.860009 222.383384 
L 103.819564 222.383384 
L 105.218136 221.870647 
L 113.932321 221.870647 
L 114.384168 220.845174 
L 115.48151 220.332437 
L 116.256104 220.332437 
L 116.266862 219.819701 
L 127.896533 219.819701 
L 127.982599 219.306964 
L 129.079941 218.794228 
L 135.868399 218.794228 
L 136.287971 218.281491 
L 137.27773 218.281491 
L 137.901708 217.768754 
L 145.916607 217.768754 
L 146.895608 217.256018 
L 148.78906 217.256018 
L 150.230666 216.743281 
L 154.620033 216.743281 
L 154.630792 216.230545 
L 155.771166 215.717808 
L 162.925404 215.717808 
L 163.603174 215.205071 
L 163.968955 214.692335 
L 181.634006 214.692335 
L 182.257985 214.179598 
L 191.76828 214.179598 
L 192.403017 213.666861 
L 192.854864 213.666861 
L 193.844623 213.154125 
L 195.006514 213.154125 
L 195.415328 212.641388 
L 199.083892 212.641388 
L 202.117719 212.128652 
L 215.683876 212.128652 
L 215.942074 211.615915 
L 223.741808 211.615915 
L 224.150621 211.103178 
L 224.720809 210.590442 
L 249.249625 210.590442 
L 250.798813 210.077705 
L 258.125184 210.077705 
L 258.533997 209.564968 
L 262.267111 209.564968 
L 265.806576 209.052232 
L 288.463456 209.052232 
L 289.227292 208.539495 
L 301.80369 208.539495 
L 302.48146 208.026759 
L 305.536804 208.026759 
L 306.203815 207.514022 
L 306.612629 207.001285 
L 307.118267 207.001285 
L 307.602388 206.488549 
L 327.1071 206.488549 
L 329.420125 205.975812 
L 337.133792 205.975812 
L 339.586674 205.463075 
L 349.3982 205.463075 
L 351.969423 204.437602 
L 365.750744 204.437602 
L 368.988979 203.924866 
L 369.064286 203.412129 
L 372.904983 203.412129 
L 373.701093 202.899392 
L 436.432465 202.899392 
L 436.948862 202.386656 
L 441.467328 202.386656 
L 442.188131 201.873919 
L 446.792663 201.873919 
L 449.923314 201.361183 
L 467.577607 201.361183 
L 470.159588 200.848446 
L 473.096591 200.848446 
L 473.096591 200.848446 
" style="fill:none;stroke:#ff7f0e;stroke-linecap:square;stroke-width:1.5;"/>
   </g>
   <g id="line2d_61">
    <path clip-path="url(#pf7a98f4d9e)" d="M 71.028409 236.227273 
L 74.309676 236.227273 
L 74.449533 235.201799 
L 75.632941 235.201799 
L 76.041755 234.689063 
L 76.25692 234.689063 
L 76.321469 234.176326 
L 79.183165 234.176326 
L 79.387572 233.66359 
L 84.045895 233.66359 
L 84.357884 233.150853 
L 85.788732 233.150853 
L 86.358919 232.638116 
L 98.860009 232.638116 
L 100.107966 232.12538 
L 108.391821 232.12538 
L 108.639261 231.612643 
L 121.914945 231.612643 
L 122.711056 231.099907 
L 134.878639 231.099907 
L 135.029255 230.58717 
L 141.763921 230.58717 
L 142.398658 230.074433 
L 145.572343 230.074433 
L 145.916607 229.561697 
L 147.853092 229.561697 
L 147.982191 229.04896 
L 157.47097 229.04896 
L 157.600069 228.536223 
L 169.703104 228.536223 
L 170.800446 228.023487 
L 184.893757 228.023487 
L 188.19654 227.51075 
L 192.403017 227.51075 
L 192.854864 226.998014 
L 206.130548 226.998014 
L 206.905142 226.485277 
L 218.825286 226.485277 
L 220.223859 225.97254 
L 221.69774 225.97254 
L 222.009729 225.459804 
L 224.720809 225.459804 
L 225.861183 224.947067 
L 234.984182 224.947067 
L 236.361238 224.43433 
L 277.124258 224.43433 
L 277.393214 223.921594 
L 284.784134 223.921594 
L 285.859959 223.408857 
L 290.152502 223.408857 
L 293.864099 222.896121 
L 305.041924 222.896121 
L 305.095715 222.383384 
L 309.571148 222.383384 
L 315.961551 221.870647 
L 321.31916 221.870647 
L 323.556877 221.357911 
L 340.856148 221.357911 
L 341.706049 220.845174 
L 363.577577 220.845174 
L 364.212314 220.332437 
L 377.982878 220.332437 
L 378.76823 219.819701 
L 389.042362 219.819701 
L 389.311318 219.306964 
L 393.646894 219.306964 
L 394.496796 218.794228 
L 410.860098 218.794228 
L 411.946682 218.281491 
L 427.911929 218.281491 
L 427.944204 217.768754 
L 435.916069 217.768754 
L 436.432465 217.256018 
L 442.188131 217.256018 
L 444.060067 216.743281 
L 462.499712 216.743281 
L 463.844494 216.230545 
L 473.096591 216.230545 
L 473.096591 216.230545 
" style="fill:none;stroke:#2ca02c;stroke-linecap:square;stroke-width:1.5;"/>
   </g>
   <g id="patch_3">
    <path d="M 50.925 246.2 
L 50.925 26.8 
" style="fill:none;stroke:#000000;stroke-linecap:square;stroke-linejoin:miter;stroke-width:0.8;"/>
   </g>
   <g id="patch_4">
    <path d="M 493.2 246.2 
L 493.2 26.8 
" style="fill:none;stroke:#000000;stroke-linecap:square;stroke-linejoin:miter;stroke-width:0.8;"/>
   </g>
   <g id="patch_5">
    <path d="M 50.925 246.2 
L 493.2 246.2 
" style="fill:none;stroke:#000000;stroke-linecap:square;stroke-linejoin:miter;stroke-width:0.8;"/>
   </g>
   <g id="patch_6">
    <path d="M 50.925 26.8 
L 493.2 26.8 
" style="fill:none;stroke:#000000;stroke-linecap:square;stroke-linejoin:miter;stroke-width:0.8;"/>
   </g>
   <g id="text_18">
    <!-- Number of Rules over time: RSE -->
    <g transform="translate(175.72875 20.8)scale(0.12 -0.12)">
     <defs>
      <path d="M 3328 2828 
Q 3544 3216 3844 3400 
Q 4144 3584 4550 3584 
Q 5097 3584 5394 3201 
Q 5691 2819 5691 2113 
L 5691 0 
L 5113 0 
L 5113 2094 
Q 5113 2597 4934 2840 
Q 4756 3084 4391 3084 
Q 3944 3084 3684 2787 
Q 3425 2491 3425 1978 
L 3425 0 
L 2847 0 
L 2847 2094 
Q 2847 2600 2669 2842 
Q 2491 3084 2119 3084 
Q 1678 3084 1418 2786 
Q 1159 2488 1159 1978 
L 1159 0 
L 581 0 
L 581 3500 
L 1159 3500 
L 1159 2956 
Q 1356 3278 1631 3431 
Q 1906 3584 2284 3584 
Q 2666 3584 2933 3390 
Q 3200 3197 3328 2828 
z
" id="DejaVuSans-6d" transform="scale(0.015625)"/>
      <path d="M 3116 1747 
Q 3116 2381 2855 2742 
Q 2594 3103 2138 3103 
Q 1681 3103 1420 2742 
Q 1159 2381 1159 1747 
Q 1159 1113 1420 752 
Q 1681 391 2138 391 
Q 2594 391 2855 752 
Q 3116 1113 3116 1747 
z
M 1159 2969 
Q 1341 3281 1617 3432 
Q 1894 3584 2278 3584 
Q 2916 3584 3314 3078 
Q 3713 2572 3713 1747 
Q 3713 922 3314 415 
Q 2916 -91 2278 -91 
Q 1894 -91 1617 61 
Q 1341 213 1159 525 
L 1159 0 
L 581 0 
L 581 4863 
L 1159 4863 
L 1159 2969 
z
" id="DejaVuSans-62" transform="scale(0.015625)"/>
      <path d="M 2375 4863 
L 2375 4384 
L 1825 4384 
Q 1516 4384 1395 4259 
Q 1275 4134 1275 3809 
L 1275 3500 
L 2222 3500 
L 2222 3053 
L 1275 3053 
L 1275 0 
L 697 0 
L 697 3053 
L 147 3053 
L 147 3500 
L 697 3500 
L 697 3744 
Q 697 4328 969 4595 
Q 1241 4863 1831 4863 
L 2375 4863 
z
" id="DejaVuSans-66" transform="scale(0.015625)"/>
      <path d="M 191 3500 
L 800 3500 
L 1894 563 
L 2988 3500 
L 3597 3500 
L 2284 0 
L 1503 0 
L 191 3500 
z
" id="DejaVuSans-76" transform="scale(0.015625)"/>
      <path d="M 1172 4494 
L 1172 3500 
L 2356 3500 
L 2356 3053 
L 1172 3053 
L 1172 1153 
Q 1172 725 1289 603 
Q 1406 481 1766 481 
L 2356 481 
L 2356 0 
L 1766 0 
Q 1100 0 847 248 
Q 594 497 594 1153 
L 594 3053 
L 172 3053 
L 172 3500 
L 594 3500 
L 594 4494 
L 1172 4494 
z
" id="DejaVuSans-74" transform="scale(0.015625)"/>
      <path d="M 603 3500 
L 1178 3500 
L 1178 0 
L 603 0 
L 603 3500 
z
M 603 4863 
L 1178 4863 
L 1178 4134 
L 603 4134 
L 603 4863 
z
" id="DejaVuSans-69" transform="scale(0.015625)"/>
      <path d="M 3425 4513 
L 3425 3897 
Q 3066 4069 2747 4153 
Q 2428 4238 2131 4238 
Q 1616 4238 1336 4038 
Q 1056 3838 1056 3469 
Q 1056 3159 1242 3001 
Q 1428 2844 1947 2747 
L 2328 2669 
Q 3034 2534 3370 2195 
Q 3706 1856 3706 1288 
Q 3706 609 3251 259 
Q 2797 -91 1919 -91 
Q 1588 -91 1214 -16 
Q 841 59 441 206 
L 441 856 
Q 825 641 1194 531 
Q 1563 422 1919 422 
Q 2459 422 2753 634 
Q 3047 847 3047 1241 
Q 3047 1584 2836 1778 
Q 2625 1972 2144 2069 
L 1759 2144 
Q 1053 2284 737 2584 
Q 422 2884 422 3419 
Q 422 4038 858 4394 
Q 1294 4750 2059 4750 
Q 2388 4750 2728 4690 
Q 3069 4631 3425 4513 
z
" id="DejaVuSans-53" transform="scale(0.015625)"/>
      <path d="M 628 4666 
L 3578 4666 
L 3578 4134 
L 1259 4134 
L 1259 2753 
L 3481 2753 
L 3481 2222 
L 1259 2222 
L 1259 531 
L 3634 531 
L 3634 0 
L 628 0 
L 628 4666 
z
" id="DejaVuSans-45" transform="scale(0.015625)"/>
     </defs>
     <use xlink:href="#DejaVuSans-4e"/>
     <use x="74.804688" xlink:href="#DejaVuSans-75"/>
     <use x="138.183594" xlink:href="#DejaVuSans-6d"/>
     <use x="235.595703" xlink:href="#DejaVuSans-62"/>
     <use x="299.072266" xlink:href="#DejaVuSans-65"/>
     <use x="360.595703" xlink:href="#DejaVuSans-72"/>
     <use x="401.708984" xlink:href="#DejaVuSans-20"/>
     <use x="433.496094" xlink:href="#DejaVuSans-6f"/>
     <use x="494.677734" xlink:href="#DejaVuSans-66"/>
     <use x="529.882812" xlink:href="#DejaVuSans-20"/>
     <use x="561.669922" xlink:href="#DejaVuSans-52"/>
     <use x="626.652344" xlink:href="#DejaVuSans-75"/>
     <use x="690.03125" xlink:href="#DejaVuSans-6c"/>
     <use x="717.814453" xlink:href="#DejaVuSans-65"/>
     <use x="779.337891" xlink:href="#DejaVuSans-73"/>
     <use x="831.4375" xlink:href="#DejaVuSans-20"/>
     <use x="863.224609" xlink:href="#DejaVuSans-6f"/>
     <use x="924.40625" xlink:href="#DejaVuSans-76"/>
     <use x="983.585938" xlink:href="#DejaVuSans-65"/>
     <use x="1045.109375" xlink:href="#DejaVuSans-72"/>
     <use x="1086.222656" xlink:href="#DejaVuSans-20"/>
     <use x="1118.009766" xlink:href="#DejaVuSans-74"/>
     <use x="1157.21875" xlink:href="#DejaVuSans-69"/>
     <use x="1185.001953" xlink:href="#DejaVuSans-6d"/>
     <use x="1282.414062" xlink:href="#DejaVuSans-65"/>
     <use x="1343.9375" xlink:href="#DejaVuSans-3a"/>
     <use x="1377.628906" xlink:href="#DejaVuSans-20"/>
     <use x="1409.416016" xlink:href="#DejaVuSans-52"/>
     <use x="1478.898438" xlink:href="#DejaVuSans-53"/>
     <use x="1542.375" xlink:href="#DejaVuSans-45"/>
    </g>
   </g>
   <g id="legend_1">
    <g id="patch_7">
     <path d="M 57.925 78.834375 
L 161.51875 78.834375 
Q 163.51875 78.834375 163.51875 76.834375 
L 163.51875 33.8 
Q 163.51875 31.8 161.51875 31.8 
L 57.925 31.8 
Q 55.925 31.8 55.925 33.8 
L 55.925 76.834375 
Q 55.925 78.834375 57.925 78.834375 
z
" style="fill:#ffffff;opacity:0.8;stroke:#cccccc;stroke-linejoin:miter;"/>
    </g>
    <g id="line2d_62">
     <path d="M 59.925 39.898437 
L 79.925 39.898437 
" style="fill:none;stroke:#1f77b4;stroke-linecap:square;stroke-width:1.5;"/>
    </g>
    <g id="line2d_63"/>
    <g id="text_19">
     <!-- Not supported -->
     <g transform="translate(87.925 43.398437)scale(0.1 -0.1)">
      <defs>
       <path d="M 1159 525 
L 1159 -1331 
L 581 -1331 
L 581 3500 
L 1159 3500 
L 1159 2969 
Q 1341 3281 1617 3432 
Q 1894 3584 2278 3584 
Q 2916 3584 3314 3078 
Q 3713 2572 3713 1747 
Q 3713 922 3314 415 
Q 2916 -91 2278 -91 
Q 1894 -91 1617 61 
Q 1341 213 1159 525 
z
M 3116 1747 
Q 3116 2381 2855 2742 
Q 2594 3103 2138 3103 
Q 1681 3103 1420 2742 
Q 1159 2381 1159 1747 
Q 1159 1113 1420 752 
Q 1681 391 2138 391 
Q 2594 391 2855 752 
Q 3116 1113 3116 1747 
z
" id="DejaVuSans-70" transform="scale(0.015625)"/>
       <path d="M 2906 2969 
L 2906 4863 
L 3481 4863 
L 3481 0 
L 2906 0 
L 2906 525 
Q 2725 213 2448 61 
Q 2172 -91 1784 -91 
Q 1150 -91 751 415 
Q 353 922 353 1747 
Q 353 2572 751 3078 
Q 1150 3584 1784 3584 
Q 2172 3584 2448 3432 
Q 2725 3281 2906 2969 
z
M 947 1747 
Q 947 1113 1208 752 
Q 1469 391 1925 391 
Q 2381 391 2643 752 
Q 2906 1113 2906 1747 
Q 2906 2381 2643 2742 
Q 2381 3103 1925 3103 
Q 1469 3103 1208 2742 
Q 947 2381 947 1747 
z
" id="DejaVuSans-64" transform="scale(0.015625)"/>
      </defs>
      <use xlink:href="#DejaVuSans-4e"/>
      <use x="74.804688" xlink:href="#DejaVuSans-6f"/>
      <use x="135.986328" xlink:href="#DejaVuSans-74"/>
      <use x="175.195312" xlink:href="#DejaVuSans-20"/>
      <use x="206.982422" xlink:href="#DejaVuSans-73"/>
      <use x="259.082031" xlink:href="#DejaVuSans-75"/>
      <use x="322.460938" xlink:href="#DejaVuSans-70"/>
      <use x="385.9375" xlink:href="#DejaVuSans-70"/>
      <use x="449.414062" xlink:href="#DejaVuSans-6f"/>
      <use x="510.595703" xlink:href="#DejaVuSans-72"/>
      <use x="551.708984" xlink:href="#DejaVuSans-74"/>
      <use x="590.917969" xlink:href="#DejaVuSans-65"/>
      <use x="652.441406" xlink:href="#DejaVuSans-64"/>
     </g>
    </g>
    <g id="line2d_64">
     <path d="M 59.925 54.576562 
L 79.925 54.576562 
" style="fill:none;stroke:#ff7f0e;stroke-linecap:square;stroke-width:1.5;"/>
    </g>
    <g id="line2d_65"/>
    <g id="text_20">
     <!-- Not confident -->
     <g transform="translate(87.925 58.076562)scale(0.1 -0.1)">
      <defs>
       <path d="M 3122 3366 
L 3122 2828 
Q 2878 2963 2633 3030 
Q 2388 3097 2138 3097 
Q 1578 3097 1268 2742 
Q 959 2388 959 1747 
Q 959 1106 1268 751 
Q 1578 397 2138 397 
Q 2388 397 2633 464 
Q 2878 531 3122 666 
L 3122 134 
Q 2881 22 2623 -34 
Q 2366 -91 2075 -91 
Q 1284 -91 818 406 
Q 353 903 353 1747 
Q 353 2603 823 3093 
Q 1294 3584 2113 3584 
Q 2378 3584 2631 3529 
Q 2884 3475 3122 3366 
z
" id="DejaVuSans-63" transform="scale(0.015625)"/>
       <path d="M 3513 2113 
L 3513 0 
L 2938 0 
L 2938 2094 
Q 2938 2591 2744 2837 
Q 2550 3084 2163 3084 
Q 1697 3084 1428 2787 
Q 1159 2491 1159 1978 
L 1159 0 
L 581 0 
L 581 3500 
L 1159 3500 
L 1159 2956 
Q 1366 3272 1645 3428 
Q 1925 3584 2291 3584 
Q 2894 3584 3203 3211 
Q 3513 2838 3513 2113 
z
" id="DejaVuSans-6e" transform="scale(0.015625)"/>
      </defs>
      <use xlink:href="#DejaVuSans-4e"/>
      <use x="74.804688" xlink:href="#DejaVuSans-6f"/>
      <use x="135.986328" xlink:href="#DejaVuSans-74"/>
      <use x="175.195312" xlink:href="#DejaVuSans-20"/>
      <use x="206.982422" xlink:href="#DejaVuSans-63"/>
      <use x="261.962891" xlink:href="#DejaVuSans-6f"/>
      <use x="323.144531" xlink:href="#DejaVuSans-6e"/>
      <use x="386.523438" xlink:href="#DejaVuSans-66"/>
      <use x="421.728516" xlink:href="#DejaVuSans-69"/>
      <use x="449.511719" xlink:href="#DejaVuSans-64"/>
      <use x="512.988281" xlink:href="#DejaVuSans-65"/>
      <use x="574.511719" xlink:href="#DejaVuSans-6e"/>
      <use x="637.890625" xlink:href="#DejaVuSans-74"/>
     </g>
    </g>
    <g id="line2d_66">
     <path d="M 59.925 69.254687 
L 79.925 69.254687 
" style="fill:none;stroke:#2ca02c;stroke-linecap:square;stroke-width:1.5;"/>
    </g>
    <g id="line2d_67"/>
    <g id="text_21">
     <!-- confident -->
     <g transform="translate(87.925 72.754687)scale(0.1 -0.1)">
      <use xlink:href="#DejaVuSans-63"/>
      <use x="54.980469" xlink:href="#DejaVuSans-6f"/>
      <use x="116.162109" xlink:href="#DejaVuSans-6e"/>
      <use x="179.541016" xlink:href="#DejaVuSans-66"/>
      <use x="214.746094" xlink:href="#DejaVuSans-69"/>
      <use x="242.529297" xlink:href="#DejaVuSans-64"/>
      <use x="306.005859" xlink:href="#DejaVuSans-65"/>
      <use x="367.529297" xlink:href="#DejaVuSans-6e"/>
      <use x="430.908203" xlink:href="#DejaVuSans-74"/>
     </g>
    </g>
   </g>
  </g>
 </g>
 <defs>
  <clipPath id="pf7a98f4d9e">
   <rect height="219.4" width="442.275" x="50.925" y="26.8"/>
  </clipPath>
 </defs>
</svg>
